<?xml version="1.0" encoding="utf-8"?>
<!-- Generator: Adobe Illustrator 16.0.0, SVG Export Plug-In . SVG Version: 6.00 Build 0)  -->
<!DOCTYPE svg PUBLIC "-//W3C//DTD SVG 1.1//EN" "http://www.w3.org/Graphics/SVG/1.1/DTD/svg11.dtd">
<svg version="1.1" id="Layer_1" xmlns="http://www.w3.org/2000/svg" xmlns:xlink="http://www.w3.org/1999/xlink" x="0px" y="0px"
	 width="607.134px" height="561.012px" viewBox="273.642 1 607.134 561.012" enable-background="new 273.642 1 607.134 561.012"
	 xml:space="preserve">
<g id="Layer_2_1_">
	<g id="Layer_1-2">
		<path fill="#F20127" d="M440.083,279.483c-1.295,22.503,16.028,41.769,38.531,43.064c0.809,0,1.62,0,2.428,0
			c22.666,0,40.96-18.295,40.797-40.96c0-22.665-18.294-40.959-40.96-40.797C459.187,240.79,441.216,257.789,440.083,279.483z"/>
		<path fill="#F20127" d="M287.579,268.96c-7.286-0.486-13.6,5.181-13.923,12.466c-0.323,7.287,5.18,13.599,12.466,13.923
			c7.286,0.484,13.438-5.18,13.923-12.467C300.53,275.598,294.863,269.446,287.579,268.96L287.579,268.96z"/>
		<path fill="#F20127" d="M437.492,42.146c6.476-3.237,9.067-11.333,5.829-17.809c-3.237-6.475-11.332-9.066-17.808-5.828
			c-6.476,3.237-9.066,11.171-5.829,17.646C422.923,42.792,430.855,45.545,437.492,42.146
			C437.331,42.146,437.492,42.146,437.492,42.146z"/>
		<path fill="#F20127" d="M478.938,114.512c10.039-5.018,14.085-17.322,9.067-27.36c-5.018-10.038-17.323-14.085-27.36-9.066
			c-10.038,5.019-14.084,17.323-9.065,27.36C456.596,115.483,468.901,119.531,478.938,114.512z"/>
		<path fill="#F20127" d="M339.385,164.213c7.771,5.019,18.132,2.915,23.313-4.857c5.019-7.771,2.914-18.132-4.857-23.313
			c-7.771-5.019-18.132-2.915-23.313,4.856l0,0C329.346,148.671,331.613,159.195,339.385,164.213z"/>
		<path fill="#F20127" d="M364.154,261.674c-11.333-0.647-20.884,7.934-21.532,19.266c-0.647,11.333,7.934,20.884,19.267,21.533
			c11.332,0.648,20.884-7.934,21.532-19.266l0,0C384.068,272.037,375.487,262.323,364.154,261.674z"/>
		<path fill="#F20127" d="M341.651,398.799c-8.257,4.209-11.656,14.248-7.446,22.666c4.209,8.256,14.246,11.656,22.665,7.447
			c8.256-4.211,11.656-14.248,7.447-22.666l0,0C360.107,397.99,349.908,394.59,341.651,398.799L341.651,398.799z"/>
		<path fill="#F20127" d="M420.979,219.419c11.172,7.286,26.065,4.209,33.188-6.961c7.285-11.171,4.209-26.065-6.961-33.188
			c-11.171-7.286-26.065-4.209-33.189,6.961C406.732,197.24,409.809,212.134,420.979,219.419L420.979,219.419z"/>
		<path fill="#F20127" d="M672.726,112.894c9.391,6.152,22.181,3.562,28.332-5.829c6.152-9.39,3.562-22.179-5.828-28.332
			c-9.391-6.152-22.179-3.562-28.332,5.828l0,0C660.584,94.113,663.174,106.741,672.726,112.894L672.726,112.894z"/>
		<path fill="#F20127" d="M714.494,40.85c6.152,4.047,14.246,2.267,18.295-3.885c4.047-6.152,2.267-14.247-3.886-18.295
			c-6.152-4.047-14.246-2.267-18.294,3.724C706.724,28.546,708.505,36.802,714.494,40.85L714.494,40.85z"/>
		<path fill="#F20127" d="M675.803,240.466c-22.503-1.295-41.932,16.028-43.063,38.532c-1.296,22.502,16.027,41.93,38.529,43.062
			c0.81,0,1.62,0,2.267,0c22.504,0,40.798-18.293,40.798-40.958C714.494,259.57,697.495,241.6,675.803,240.466L675.803,240.466z"/>
		<path fill="#F20127" d="M492.375,216.505c6.961,13.761,21.047,22.503,36.589,22.503c22.504,0,40.796-18.293,40.796-40.959
			c0-6.313-1.457-12.628-4.371-18.456c-10.199-20.236-34.807-28.332-54.882-18.132C490.27,171.823,482.176,196.431,492.375,216.505
			L492.375,216.505z"/>
		<path fill="#F20127" d="M812.765,164.213c8.259-4.209,11.495-14.409,7.285-22.665c-4.209-8.258-14.408-11.495-22.665-7.286
			c-8.256,4.209-11.493,14.247-7.445,22.503C794.309,165.023,804.347,168.423,812.765,164.213L812.765,164.213z"/>
		<path fill="#F20127" d="M709.153,177.166c-11.818,5.99-16.676,20.398-10.686,32.217c5.99,11.818,20.398,16.675,32.218,10.685
			c11.816-5.991,16.676-20.398,10.686-32.218C735.38,176.032,720.971,171.337,709.153,177.166z"/>
		<path fill="#F20127" d="M575.589,34.698c9.227,0.486,17.161-6.637,17.808-15.865S586.76,1.67,577.532,1.024
			c-9.229-0.486-17.161,6.476-17.809,15.704C559.238,26.117,566.361,34.05,575.589,34.698L575.589,34.698z"/>
		<path fill="#F20127" d="M575.427,140.416c13.276,0.81,24.609-9.39,25.255-22.665c0.81-13.276-9.39-24.608-22.665-25.255
			c-13.275-0.81-24.608,9.39-25.256,22.665C552.115,128.435,562.151,139.767,575.427,140.416L575.427,140.416z"/>
		<path fill="#F20127" d="M445.263,385.848c11.818-5.99,16.675-20.398,10.686-32.217c-5.991-11.818-20.398-16.676-32.218-10.686
			c-11.819,5.99-16.675,20.398-10.685,32.217S433.446,391.838,445.263,385.848z"/>
		<path fill="#F20127" d="M590.969,175.546c-12.305,18.942-7.123,44.197,11.818,56.501s44.196,7.124,56.501-11.818
			c12.305-18.941,7.124-44.197-11.817-56.501c-6.639-4.372-14.408-6.638-22.342-6.638
			C611.368,157.09,598.578,164.053,590.969,175.546z"/>
		<path fill="#F20127" d="M662.04,346.508c-10.199-20.236-34.808-28.332-54.882-18.133c-20.237,10.199-28.333,34.809-18.132,54.883
			c10.199,20.236,34.807,28.332,54.883,18.133l0,0c20.074-10.039,28.331-34.324,18.293-54.559
			C662.203,346.67,662.203,346.67,662.04,346.508z"/>
		<path fill="#F20127" d="M733.437,343.594c-11.17-7.285-26.064-4.209-33.188,6.961c-7.285,11.172-4.21,26.064,6.961,33.189
			c11.171,7.285,26.065,4.209,33.188-6.963C747.684,365.773,744.608,350.879,733.437,343.594L733.437,343.594z"/>
		<path fill="#F20127" d="M811.794,282.235c0.647-11.333-7.935-20.884-19.266-21.532c-11.333-0.648-20.885,7.933-21.533,19.266
			c-0.646,11.333,7.935,20.883,19.267,21.532l0,0C801.433,302.148,811.146,293.404,811.794,282.235z"/>
		<path fill="#F20127" d="M868.295,267.665c-7.284-0.486-13.598,5.18-13.922,12.466s5.18,13.6,12.466,13.922
			c7.285,0.486,13.437-5.18,13.923-12.466C881.085,274.302,875.581,268.15,868.295,267.665z"/>
		<path fill="#F20127" d="M815.032,398.799c-7.771-5.018-18.132-2.914-23.313,4.857c-5.019,7.771-2.914,18.133,4.857,23.312
			c7.771,5.02,18.132,2.914,23.312-4.855C825.069,414.342,822.803,403.818,815.032,398.799L815.032,398.799z"/>
		<path fill="#F20127" d="M439.759,522.164c-6.152-4.049-14.246-2.268-18.294,3.723c-4.047,6.152-2.267,14.246,3.723,18.295
			c6.153,4.047,14.247,2.266,18.294-3.725l0,0C447.692,534.467,445.912,526.211,439.759,522.164z"/>
		<path fill="#F20127" d="M716.924,520.869c-6.477,3.236-9.066,11.332-5.83,17.807c3.238,6.477,11.333,9.066,17.81,5.83
			c6.476-3.238,9.065-11.172,5.828-17.646C731.493,520.221,723.562,517.469,716.924,520.869
			C717.085,520.869,716.924,520.869,716.924,520.869z"/>
		<path fill="#F20127" d="M563.447,387.467c12.305-18.941,7.124-44.197-11.819-56.664c-18.941-12.305-44.196-7.123-56.663,11.82
			c-12.466,18.939-7.124,44.195,11.819,56.662c6.637,4.371,14.408,6.637,22.341,6.637
			C543.048,406.086,555.838,399.123,563.447,387.467z"/>
		<path fill="#F20127" d="M481.69,450.119c-9.39-6.15-22.18-3.561-28.332,5.83c-6.152,9.389-3.562,22.178,5.828,28.33
			c9.391,6.152,22.18,3.564,28.333-5.828l0,0C493.832,469.062,491.242,456.271,481.69,450.119z"/>
		<path fill="#F20127" d="M577.046,528.316c-9.228-0.486-17.161,6.637-17.808,15.863c-0.647,9.229,6.637,17.162,15.865,17.809
			c9.229,0.486,17.161-6.475,17.809-15.703C593.397,536.895,586.273,528.963,577.046,528.316L577.046,528.316z"/>
		<path fill="#F20127" d="M577.208,422.598c-13.275-0.809-24.607,9.391-25.256,22.666c-0.808,13.275,9.391,24.607,22.666,25.256
			c13.276,0.646,24.608-9.391,25.255-22.666C600.683,434.74,590.483,423.246,577.208,422.598L577.208,422.598z"/>
		<path fill="#F20127" d="M675.478,448.502c-10.038,5.178-14.084,17.482-8.903,27.52c5.18,10.039,17.484,14.086,27.521,8.904
			c10.039-5.018,14.085-17.322,9.066-27.359C697.981,447.529,685.678,443.32,675.478,448.502L675.478,448.502z"/>
	</g>
</g>
</svg>
