<svg xmlns="http://www.w3.org/2000/svg" viewBox="0 0 44.436 29.517">
  <defs>
    <style>
      .cls-1 {
        fill: #f20127;
      }
    </style>
  </defs>
  <path id="eye" class="cls-1" d="M44.345,17.634c-3.356-8.54-12.252-14.28-22.127-14.28S3.447,9.094.091,17.634a1.307,1.307,0,0,0,0,.954C3.45,27.13,12.342,32.871,22.218,32.871s18.768-5.738,22.127-14.28A1.288,1.288,0,0,0,44.345,17.634ZM22.218,30.257c-8.621,0-16.387-4.859-19.5-12.144,3.108-7.285,10.874-12.144,19.5-12.144s16.389,4.859,19.5,12.144C38.6,25.395,30.838,30.257,22.218,30.257Zm0-21.667a9.523,9.523,0,1,0,9.525,9.523A9.533,9.533,0,0,0,22.218,8.59Zm0,16.431a6.909,6.909,0,1,1,6.909-6.909A6.918,6.918,0,0,1,22.218,25.021Zm0-10.456a3.547,3.547,0,1,0,3.547,3.547A3.552,3.552,0,0,0,22.218,14.565Zm0,4.48a.933.933,0,1,1,.933-.933A.934.934,0,0,1,22.218,19.045Z" transform="translate(0 -3.354)"/>
</svg>
