<?xml version="1.0" encoding="utf-8"?>
<!-- Generator: Adobe Illustrator 16.0.0, SVG Export Plug-In . SVG Version: 6.00 Build 0)  -->
<!DOCTYPE svg PUBLIC "-//W3C//DTD SVG 1.1//EN" "http://www.w3.org/Graphics/SVG/1.1/DTD/svg11.dtd">
<svg version="1.1" id="Layer_1" xmlns="http://www.w3.org/2000/svg" xmlns:xlink="http://www.w3.org/1999/xlink" x="0px" y="0px"
	 width="396.851px" height="364.962px" viewBox="376.865 42.52 396.851 364.962"
	 enable-background="new 376.865 42.52 396.851 364.962" xml:space="preserve">
<title>fee-model</title>
<desc>Created with Sketch.</desc>
<g>
	<g transform="translate(-100.000000, -1506.000000)">
		<g transform="translate(100.000000, 1506.000000)">
			<g>
				<path fill="#F20127" d="M720.396,95.979C686.021,61.513,640.296,42.52,591.712,42.52c-49.48,0-95.777,19.566-130.316,55.097
					c-3.756,3.848-3.675,10.069,0.163,13.917c3.838,3.766,10.043,3.684,13.881-0.164c30.864-31.683,72.099-49.12,116.272-49.12
					C681.285,62.168,754.119,135.193,754.119,225c0,89.807-72.834,162.833-162.407,162.833
					c-89.572,0-162.406-73.025-162.406-162.833v-2.047l16.167,16.209c1.878,1.883,4.409,2.866,6.94,2.866s4.981-0.982,6.94-2.866
					c3.838-3.848,3.838-10.069,0-13.917l-32.824-32.992c-3.837-3.848-10.043-3.848-13.881,0l-32.906,32.992
					c-3.837,3.848-3.837,10.069,0,13.917c3.838,3.848,10.043,3.848,13.881,0l16.167-16.209V225
					c0,48.71,18.943,94.556,53.319,129.022c34.375,34.466,80.101,53.459,128.684,53.459s94.309-18.993,128.685-53.459
					c34.375-34.466,53.237-80.312,53.237-129.022S754.772,130.444,720.396,95.979L720.396,95.979z"/>
				<path fill="#F20127" d="M643.807,158.606c3.838-3.848,10.043-3.848,13.881-0.082c3.838,3.848,3.838,10.069,0,13.917
					L537.332,293.113c-1.96,1.883-4.409,2.865-6.94,2.865s-5.062-0.982-6.94-2.865c-3.838-3.848-3.838-10.069,0-13.917
					L643.807,158.606z M612.289,239.818c6.695-6.631,15.432-10.315,24.822-10.315c9.39,0,18.208,3.684,24.822,10.315
					c13.636,13.672,13.636,36.021,0,49.693c-6.614,6.631-15.433,10.314-24.822,10.314c-9.391,0-18.209-3.684-24.822-10.314
					C598.653,275.839,598.653,253.49,612.289,239.818z M648.053,275.676c6.042-6.058,6.042-15.882,0-21.94
					c-2.939-2.865-6.777-4.502-10.941-4.502s-8.002,1.556-10.941,4.502c-6.042,6.059-6.042,15.882,0,21.94
					c2.939,2.865,6.777,4.503,10.941,4.503S645.113,278.623,648.053,275.676z M546.641,149.847c9.39,0,18.126,3.684,24.822,10.315
					c6.613,6.631,10.288,15.473,10.288,24.887c0,9.415-3.675,18.256-10.288,24.888c-6.614,6.631-15.433,10.315-24.822,10.315
					c-9.391,0-18.209-3.684-24.822-10.315c-6.614-6.631-10.289-15.473-10.289-24.888c0-9.415,3.675-18.256,10.289-24.887
					C528.432,153.531,537.25,149.847,546.641,149.847z M557.582,196.02c2.939-2.947,4.49-6.877,4.49-10.97
					c0-4.175-1.551-8.023-4.49-10.97c-2.939-2.866-6.777-4.503-10.941-4.503c-4.165,0-8.002,1.556-10.941,4.503
					c-2.858,2.947-4.491,6.795-4.491,10.97c0,4.175,1.552,8.023,4.491,10.97c2.939,2.865,6.776,4.503,10.941,4.503
					C550.805,200.522,554.643,198.967,557.582,196.02z"/>
			</g>
		</g>
	</g>
</g>
</svg>
