<?xml version="1.0" encoding="utf-8"?>
<!-- Generator: Adobe Illustrator 16.0.0, SVG Export Plug-In . SVG Version: 6.00 Build 0)  -->
<!DOCTYPE svg PUBLIC "-//W3C//DTD SVG 1.1//EN" "http://www.w3.org/Graphics/SVG/1.1/DTD/svg11.dtd">
<svg version="1.1" id="Layer_1" xmlns="http://www.w3.org/2000/svg" xmlns:xlink="http://www.w3.org/1999/xlink" x="0px" y="0px"
	 width="317.936px" height="431.32px" viewBox="0 0 317.936 431.32" enable-background="new 0 0 317.936 431.32"
	 xml:space="preserve">
<g>
	<path fill="#F20127" d="M225.866,46.261h-71.661C141.052,18.595,113.387,0,81.185,0C36.283,0-0.001,36.283-0.001,81.184
		c0,30.388,17.234,57.146,42.181,71.207v244.914l34.016,34.016l34.923-34.922l34.47,34.922l34.469-34.922l34.471,34.922
		l34.922-34.922l34.469,34.922l11.34-11.338l22.678-22.678V138.784L225.866,46.261z M232.669,85.266l46.262,46.261h-46.262V85.266z
		 M41.726,55.332c0-7.257,5.896-13.606,13.605-13.606c7.257,0,13.606,5.896,13.606,13.606s-5.896,13.606-13.606,13.606
		S41.726,63.042,41.726,55.332z M53.065,116.56c-1.814,0-4.082-0.907-5.442-2.268c-3.175-3.175-3.175-8.164,0-11.339l54.879-55.332
		c3.175-3.175,8.163-3.175,11.339,0c3.175,3.175,3.175,8.164,0,11.338l-54.879,55.333C57.147,115.653,55.332,116.56,53.065,116.56z
		 M120.19,106.582c0,7.71-5.896,13.606-13.606,13.606c-7.257,0-13.605-5.896-13.605-13.606c0-7.257,5.896-13.153,13.605-13.153
		C113.84,93.43,120.19,99.326,120.19,106.582z M295.257,387.326l-11.338,11.338l-34.924-34.469l-34.469,34.469l-34.469-34.469
		l-34.924,34.469l-34.47-34.469l-34.922,34.469l-11.339-11.338V160.554c5.442,0.907,10.885,1.814,16.327,1.814
		c44.901,0,81.185-36.284,81.185-81.185c0-4.082-0.453-8.164-0.906-12.246h48.98v85.266h85.268V387.326L295.257,387.326z"/>
	<rect x="106.129" y="301.605" fill="#F20127" width="147.403" height="22.678"/>
	<rect x="106.129" y="249.449" fill="#F20127" width="147.403" height="22.676"/>
	<rect x="106.129" y="197.745" fill="#F20127" width="147.403" height="22.677"/>
</g>
</svg>
