<?xml version="1.0" encoding="utf-8"?>
<!-- Generator: Adobe Illustrator 16.0.0, SVG Export Plug-In . SVG Version: 6.00 Build 0)  -->
<!DOCTYPE svg PUBLIC "-//W3C//DTD SVG 1.1//EN" "http://www.w3.org/Graphics/SVG/1.1/DTD/svg11.dtd">
<svg version="1.1" id="Layer_1" xmlns="http://www.w3.org/2000/svg" xmlns:xlink="http://www.w3.org/1999/xlink" x="0px" y="0px"
	 width="416.667px" height="390.653px" viewBox="366.66 26.608 416.667 390.653"
	 enable-background="new 366.66 26.608 416.667 390.653" xml:space="preserve">
<g display="none">
	<path display="inline" fill="#1C8DCD" d="M734.938,182.627h-90.104v-36.283c0-38.098-30.841-68.939-68.938-68.939H435.599
		c-38.098,0-68.939,30.841-68.939,68.939v79.824c0,38.098,30.841,68.938,68.939,68.938h48.378l68.334,70.148v-70.752h23.584
		c4.838,0,10.28-0.605,14.514-1.814c3.628,23.584,23.584,41.726,48.378,41.726h13.909v50.797l49.587-50.797h32.051
		c27.213,0,48.982-21.77,48.982-48.982v-54.425C783.92,204.397,761.546,182.627,734.938,182.627z M540.216,282.407v52.611
		l-50.797-52.611h-53.82c-31.446,0-56.844-25.398-56.844-56.844v-79.219c0-31.446,25.398-56.844,56.844-56.844h140.296
		c31.446,0,56.845,25.398,56.845,56.844v79.824c0,31.446-25.398,56.844-56.845,56.844h-35.679V282.407z M771.826,285.431
		c0,20.561-16.328,36.888-36.889,36.888h-37.493l-32.05,32.655v-32.655h-26.608c-18.746,0-34.469-14.513-36.283-33.26
		c24.793-10.28,42.33-35.074,42.33-63.496v-31.446h90.104c20.561,0,36.889,16.328,36.889,36.888V285.431z"/>
</g>
<g display="none">
	<g display="inline">
		<path fill="#1C8DCD" d="M506.956,126.992c-4.838,0-9.071,4.233-9.071,9.071c0,4.837,4.233,9.071,9.071,9.071h119.735
			c4.838,0,9.071-4.233,9.071-9.071c0-4.838-4.233-9.071-9.071-9.071H506.956z"/>
		<path fill="#1C8DCD" d="M667.208,79.824c4.233-13.909,0-28.422-10.885-38.098c-11.49-9.676-27.817-11.49-42.331-4.838
			c-27.212,12.699-36.888,59.868-37.493,65.311l-1.813,10.885l11.489-0.604C597.665,112.479,659.347,108.851,667.208,79.824z
			 M621.249,53.82c3.629-1.814,6.652-2.418,10.28-2.418c4.838,0,9.071,1.814,12.699,4.837c5.442,4.838,7.257,11.49,5.442,19.352
			c-2.419,9.675-29.631,16.328-53.216,18.747C600.688,79.219,609.154,59.263,621.249,53.82z"/>
		<path fill="#1C8DCD" d="M548.077,113.083l11.49,0.605l-1.814-10.885c-1.209-5.442-10.28-52.611-37.493-65.31
			c-14.513-6.652-30.841-4.838-42.331,4.838c-10.885,9.071-15.117,23.584-10.885,38.098
			C474.301,108.851,535.983,112.479,548.077,113.083z M489.419,56.239c3.629-3.023,7.861-4.837,12.699-4.837
			c3.629,0,6.652,0.604,10.28,2.418c12.095,5.443,20.561,26.003,24.794,40.517c-23.584-2.418-50.192-9.071-53.216-18.746
			C481.558,67.729,483.977,60.473,489.419,56.239z"/>
		<path fill="#1C8DCD" d="M632.134,159.043L632.134,159.043c-0.604,0-0.604-0.605-1.209-0.605c0,0-0.604,0-0.604-0.604h-0.604
			c-0.605,0-0.605,0-1.21,0h-0.604c-0.604,0-0.604,0-1.21,0l0,0h-120.34l0,0c-0.604,0-0.604,0-1.21,0h-0.604h-0.604
			c-0.604,0-0.604,0-0.604,0.604c0,0-0.605,0-0.605,0.605c-0.604,0-0.604,0.604-1.209,0.604l0,0
			c-56.845,41.122-94.942,126.992-94.942,181.418c0,72.566,68.333,72.566,117.921,72.566c6.652,0,13.304,0,19.956,0
			c14.514,0,29.632,0,44.145,0c6.652,0,13.909,0,20.561,0c49.588,0,117.922,0,117.922-72.566
			C727.076,286.035,688.979,200.164,632.134,159.043z M609.154,394.886c-6.651,0-13.304,0-19.956,0c-14.513,0-29.631,0-44.145,0
			c-6.652,0-13.304,0-19.956,0c-68.938,0-99.779-7.861-99.779-54.425c0-48.379,35.074-126.993,85.266-165.09h114.294
			c50.191,38.098,85.266,116.711,85.266,165.09C708.935,387.024,678.094,394.886,609.154,394.886z"/>
	</g>
</g>
<g display="none">
	<path display="inline" fill="#1C8DCD" d="M760.336,205.002c-4.233-5.442-10.28-9.071-16.933-9.676l-81.638-9.675l-47.169-42.936
		c-6.651-6.047-15.117-9.071-24.188-9.071H448.902c-12.095,0-23.584,6.047-30.236,16.327
		c-16.328,24.794-22.979,56.844-24.793,72.567l-9.071,4.233v38.703l43.54,9.071c0,0.604,0,1.209,0,1.814
		c0,24.189,19.352,43.54,43.54,43.54c24.189,0,43.54-19.351,43.54-43.54v-0.604h125.783v0.604c0,24.189,19.352,43.54,43.54,43.54
		c24.189,0,43.54-19.351,43.54-43.54v-0.604h11.49c11.489,0,20.561-8.466,22.375-19.351l4.232-32.655
		C766.384,217.701,764.569,210.444,760.336,205.002z M471.882,301.758c-13.908,0-25.398-11.49-25.398-25.398
		c0-13.909,11.49-25.398,25.398-25.398c13.909,0,25.398,11.49,25.398,25.398C497.28,290.268,485.791,301.758,471.882,301.758z
		 M684.141,301.758c-13.909,0-25.398-11.49-25.398-25.398c0-13.909,11.489-25.398,25.398-25.398s25.398,11.49,25.398,25.398
		C709.539,290.268,698.05,301.758,684.141,301.758z M743.403,253.985c0,2.419-1.813,3.628-4.232,3.628h-15.723
		c-7.257-14.514-21.771-24.794-39.308-24.794s-32.051,10.28-39.308,24.794H511.189c-7.257-14.514-21.771-24.794-39.308-24.794
		c-16.933,0-32.051,9.676-38.702,24.189l-29.632-6.047v-12.699l10.885-4.838l-1.209-6.652c0-6.047,4.838-40.517,21.771-67.125
		c3.023-4.838,8.466-7.861,14.513-7.861h140.901c4.233,0,8.466,1.814,11.489,4.838l52.007,47.168l87.686,9.676
		c1.813,0,3.628,1.209,4.838,2.419c1.209,1.814,1.813,3.628,1.209,5.442L743.403,253.985z"/>
</g>
<g display="none">
	<path display="inline" fill="#1C8DCD" d="M739.171,161.462v-15.118c0-2.419,0-9.071-4.233-14.514
		c-2.419-2.419-6.652-6.047-13.908-6.047c-10.886,0-165.695,0-175.976,0c-12.699,0-18.746,9.071-19.956,16.328l-15.118,43.541
		h-87.08c-9.676,0-16.933,2.419-21.771,7.256c-3.628,4.233-5.442,9.071-4.837,12.095v36.284h-11.49v56.24h52.006
		c6.048,16.932,22.375,29.026,41.122,29.026c18.746,0,35.073-12.095,41.121-29.026h105.827
		c6.047,16.932,22.374,29.026,41.121,29.026c18.746,0,35.074-12.095,41.121-28.422h17.537c0.604,0,1.209,0,1.814,0
		c0.604,0,1.209,0,1.813,0c4.838,0,9.071-4.233,9.071-9.071v-32.05h1.209c14.514,0,26.608-12.094,26.608-26.608v-42.936
		C765.778,172.952,753.685,161.462,739.171,161.462z M478.534,309.015c-14.514,0-26.004-11.489-26.004-26.003
		s11.49-26.003,26.004-26.003s26.003,11.49,26.003,26.003S493.048,309.015,478.534,309.015z M667.208,309.015
		c-14.513,0-26.003-11.489-26.003-26.003s11.49-26.003,26.003-26.003c14.514,0,26.004,11.49,26.004,26.003
		S681.722,309.015,667.208,309.015z M747.637,231.005c0,4.838-3.628,8.466-8.466,8.466h-19.352v41.122h-8.466
		c-1.21-22.979-20.561-41.726-44.146-41.726c-23.584,0-42.33,18.142-44.145,41.121H522.679
		c-1.814-22.979-20.561-41.121-44.145-41.121c-23.585,0-42.331,18.142-44.146,41.121h-31.445v-19.956h11.49v-53.82
		c0.604-0.605,3.023-1.814,8.466-1.814h99.779l19.352-56.844l0.604-1.814c0-1.209,1.21-1.209,1.814-1.209
		c9.676,0,164.485,0,175.37,0h0.604v0.605v0.604v44.75l13.909-9.071c1.209-1.209,3.023-1.209,4.232-1.209
		c4.838,0,8.467,3.628,8.467,8.466v42.331H747.637z"/>
</g>
<g>
	<g>
		<g>
			<g>
				<g>
					<path fill="#F20127" d="M470.067,417.261c-4.232,0-8.466-3.023-9.07-7.861L411.409,70.148
						c-0.604-4.837,2.419-9.675,7.862-10.28c4.837-0.604,9.675,2.419,10.28,7.862l49.588,339.251
						c0.604,4.838-2.419,9.676-7.861,10.28C470.673,417.261,470.673,417.261,470.067,417.261z"/>
				</g>
			</g>
			<g>
				<g>
					<path fill="#F20127" d="M476.115,246.728l-3.629-21.77L449.507,74.986l1.814-2.419c0.604-1.814,22.979-46.564,108.851-25.398
						c12.095,3.024,22.979,6.047,32.655,8.466c52.611,14.513,68.334,18.747,107.641-17.537l12.699-11.49l27.213,170.533
						l-3.628,3.023c-50.192,44.75-83.452,35.074-137.878,19.956c-7.256-2.419-15.723-4.233-24.188-6.652
						c-61.683-16.328-84.057,13.304-85.267,15.118L476.115,246.728z M540.216,191.093c11.49,0,24.189,1.814,38.702,5.442
						c8.467,2.419,16.933,4.838,24.189,6.652c50.192,14.514,76.195,21.771,117.316-12.699L700.468,62.287
						c-38.702,30.841-63.496,24.189-111.874,10.885c-9.676-2.419-19.956-5.442-32.05-8.466
						c-60.473-15.118-82.243,6.652-87.081,13.304l19.352,126.992C498.49,198.35,515.422,191.093,540.216,191.093z"/>
				</g>
			</g>
		</g>
	</g>
</g>
</svg>
