<?xml version="1.0" encoding="utf-8"?>
<!-- Generator: Adobe Illustrator 16.0.0, SVG Export Plug-In . SVG Version: 6.00 Build 0)  -->
<!DOCTYPE svg PUBLIC "-//W3C//DTD SVG 1.1//EN" "http://www.w3.org/Graphics/SVG/1.1/DTD/svg11.dtd">
<svg version="1.1" id="Layer_1" xmlns="http://www.w3.org/2000/svg" xmlns:xlink="http://www.w3.org/1999/xlink" x="0px" y="0px"
	 viewBox="437.411 45.145 275.758 363.121"
	 xml:space="preserve">
<path fill="#F20127" d="M561.532,408.266c67.427,0,122.382-54.879,122.382-122.382c0-67.502-54.955-122.306-122.382-122.306
	s-122.381,54.879-122.381,122.306S494.105,408.266,561.532,408.266z M458.049,313.626c13.909,8.92,34.167,15.27,56.769,18.973
	c3.704,22.603,10.054,42.86,18.974,56.769C496.978,379.465,467.951,350.514,458.049,313.626z M596.833,285.884
	c0,12.019-0.68,23.131-1.89,33.411c-8.013,0.907-16.705,1.512-25.852,1.738v-70.299c9.146,0.227,17.839,0.832,25.852,1.738
	C596.153,262.753,596.833,273.865,596.833,285.884z M610.288,254.816c36.964,6.728,58.432,20.409,58.432,31.143
	c0,10.734-21.468,24.341-58.432,31.144c1.059-10.28,1.663-20.712,1.663-31.144C611.951,275.528,611.347,265.097,610.288,254.816z
	 M530.39,334.716c7.785,0.831,15.646,1.285,23.584,1.512v53.669C545.054,382.64,535.681,363.364,530.39,334.716z M569.092,389.821
	v-53.67c7.861-0.227,15.798-0.68,23.584-1.512C587.385,363.364,578.012,382.64,569.092,389.821z M569.092,235.616v-53.669
	c8.92,7.257,18.293,26.532,23.584,55.181C584.89,236.372,576.953,235.843,569.092,235.616z M553.974,181.947v53.669
	c-7.861,0.227-15.799,0.68-23.584,1.512C535.681,208.479,545.054,189.204,553.974,181.947z M553.974,250.734v70.299
	c-9.146-0.227-17.84-0.831-25.853-1.738c-1.209-10.28-1.89-21.393-1.89-33.411s0.681-23.13,1.89-33.411
	C536.134,251.566,544.827,250.961,553.974,250.734z M512.776,317.027c-37.039-6.728-58.432-20.41-58.432-31.144
	c0-10.734,21.468-24.34,58.432-31.143c-1.059,10.28-1.663,20.712-1.663,31.143C511.113,296.315,511.718,306.747,512.776,317.027z
	 M589.274,389.367c8.92-13.908,15.27-34.167,18.973-56.769c22.603-3.703,42.86-10.053,56.77-18.973
	C655.114,350.514,626.087,379.465,589.274,389.367z M665.017,258.218c-13.909-8.92-34.168-15.27-56.77-18.973
	c-3.703-22.602-10.053-42.86-18.973-56.769C626.087,192.378,655.114,221.33,665.017,258.218z M533.791,182.476
	c-8.92,13.909-15.27,34.167-18.974,56.769c-22.602,3.704-42.859,10.053-56.769,18.973
	C467.951,221.33,496.978,192.378,533.791,182.476z"/>
<path fill="#F20127" d="M437.413,71.962c0.075,3.175,2.191,6.047,5.215,7.03c10.583,3.402,17.008,12.624,24.492,23.282
	c7.483,10.658,15.949,22.752,30.312,31.521c8.542,5.216,16.479,7.257,23.584,7.257c11.565,0,20.863-5.367,26.76-10.885
	c5.216,2.419,13.304,7.862,12.019,18.974c-0.151,1.512,0.227,2.872,0.831,4.157c-0.075,0.605-0.227,1.285-0.302,1.89
	c-0.378,4.158,2.721,7.862,6.879,8.164c0.227,0,0.453,0,0.68,0c3.855,0,7.182-2.948,7.56-6.879
	c0.831-9.071,9.298-18.671,15.647-24.416c6.5,5.442,16.327,10.356,28.119,10.356c8.391,0,17.84-2.495,27.894-9.146
	c15.949-10.583,25.171-24.718,33.26-37.267c8.239-12.774,15.42-23.811,27.817-28.271c3.023-1.059,5.064-4.006,4.988-7.181
	c-0.075-3.175-2.116-6.047-5.14-7.106c-3.628-1.209-90.028-29.404-121.323,25.55c-0.604,0.907-13.53,21.09-4.762,40.895
	c-3.1,2.721-7.105,6.577-10.81,11.339c-3.78-6.577-9.601-11.188-15.118-14.136c5.291-16.932-5.896-33.033-6.198-33.411
	C520.26,35.981,445.501,63.345,442.401,64.555C439.303,65.839,437.337,68.788,437.413,71.962z M599.555,87.005
	c11.868-20.863,35.226-26.457,56.693-26.457c11.187,0,21.846,1.512,30.16,3.175c-7.559,6.878-13.229,15.647-18.822,24.189
	c-7.635,11.792-15.571,24.038-28.875,32.882c-24.114,15.95-39.686-1.587-41.122-3.25C588.367,104.693,599.252,87.609,599.555,87.005
	z M537.116,92.221c0.076,0.151,9.601,14.06,2.57,24.567c-0.529,0.68-13.152,17.083-34.394,4.158
	c-11.641-7.105-18.822-17.386-25.776-27.289c-4.762-6.803-9.6-13.682-15.723-19.275C484.959,69.695,521.092,66.293,537.116,92.221z"
	/>
</svg>
