<svg xmlns="http://www.w3.org/2000/svg" viewBox="0 0 26.782 35.192">
  <defs>
    <style>
      .cls-1 {
        fill: #f20127;
      }
    </style>
  </defs>
  <path id="lock" class="cls-1" d="M17.49,22.653A2.032,2.032,0,0,1,16.459,24.4v4.441H14.4V24.4a2.028,2.028,0,0,1-1.031-1.746,2.062,2.062,0,1,1,4.124,0Zm11.268-5.179v14.6a3.1,3.1,0,0,1-3.093,3.093H5.069a3.1,3.1,0,0,1-3.093-3.093v-14.6a3.1,3.1,0,0,1,3.093-3.093h.049v-4.1a10.309,10.309,0,1,1,20.619,0v4.107a3.09,3.09,0,0,1,3.021,3.085ZM7.18,14.381h16.5v-4.1a8.248,8.248,0,1,0-16.5,0ZM26.7,17.473a1.025,1.025,0,0,0-.959-1.017v.008H5.118v-.023H5.069a1.033,1.033,0,0,0-1.031,1.031v14.6A1.033,1.033,0,0,0,5.069,33.1h20.6A1.033,1.033,0,0,0,26.7,32.072v-14.6Z" transform="translate(-1.976 0.028)"/>
</svg>
