<svg xmlns="http://www.w3.org/2000/svg" viewBox="0 0 20.583 33.962">
  <defs>
    <style>
      .cls-1 {
        fill: #f20127;
      }
    </style>
  </defs>
  <path id="medall" class="cls-1" d="M13.791,0A10.3,10.3,0,0,0,3.5,10.291a10.185,10.185,0,0,0,3.215,7.443,5.942,5.942,0,0,0,.568.465l.212.161a10.817,10.817,0,0,0,1.151.764V33.962l5.1-3.913,5.189,3.913V19.124a10.863,10.863,0,0,0,1.153-.766L20.3,18.2a6.209,6.209,0,0,0,.568-.465,10.191,10.191,0,0,0,3.213-7.443A10.3,10.3,0,0,0,13.791,0Zm3.087,29.831-3.141-2.369L10.7,29.79v-8.7a9.448,9.448,0,0,0,6.175,0v8.737ZM19.45,16.244a3.364,3.364,0,0,1-.381.3l-.253.193a8.082,8.082,0,0,1-10.047,0l-.255-.2a3.9,3.9,0,0,1-.381-.3,8.144,8.144,0,0,1-2.575-5.953,8.233,8.233,0,1,1,16.466,0,8.144,8.144,0,0,1-2.575,5.953Zm-.615-9.011.379,2.021-3.752.7,2.359,3.987-1.772,1.05L13.81,11.214l-2.244,3.777L9.8,13.941,12.17,9.948,8.514,9.254,8.9,7.233l3.865.731V4.117h2.058V7.982l4.014-.749Z" transform="translate(-3.5)"/>
</svg>
