<?xml version="1.0" encoding="utf-8"?>
<!-- Generator: Adobe Illustrator 16.0.0, SVG Export Plug-In . SVG Version: 6.00 Build 0)  -->
<!DOCTYPE svg PUBLIC "-//W3C//DTD SVG 1.1//EN" "http://www.w3.org/Graphics/SVG/1.1/DTD/svg11.dtd">
<svg version="1.1" id="Layer_1" xmlns="http://www.w3.org/2000/svg" xmlns:xlink="http://www.w3.org/1999/xlink" x="0px" y="0px"
	 width="441.689px" height="441.219px" viewBox="354.414 6.43 441.689 441.219"
	 enable-background="new 354.414 6.43 441.689 441.219" xml:space="preserve">
<g>
	<path fill="#F20127" d="M398.408,212.259c-14.513-1.361-28.573-2.721-43.994-3.628c9.071-74.381,43.54-132.435,107.49-170.533
		C528.121-1.36,597.514-2.721,668.267,27.213c-6.35,14.06-12.699,26.759-18.596,39.912
		C530.843,13.153,406.572,99.326,398.408,212.259z M749.451,196.838c7.71,51.25-3.175,97.965-34.47,138.785
		c-31.294,40.365-73.021,62.589-124.271,68.031c1.36,14.514,2.268,28.573,3.628,43.087
		c107.49-3.629,222.236-111.572,198.652-257.613C778.478,191.849,764.418,194.117,749.451,196.838z M397.954,243.1
		c-13.606,1.361-27.666,2.268-42.179,3.628c3.174,89.801,81.638,190.942,200.013,200.92c1.36-14.514,2.721-29.027,3.628-42.634
		C467.347,389.141,413.375,335.623,397.954,243.1z M715.436,119.736c10.885,14.513,19.502,29.934,26.306,47.168
		c13.605-4.989,27.212-9.978,41.726-14.967c-16.327-43.541-43.087-78.463-81.185-105.676c-8.617,12.246-16.781,24.038-25.398,36.283
		C691.397,93.43,704.097,105.222,715.436,119.736z M683.233,322.017c-29.48-22.224-58.054-36.737-64.403-39.912
		c-0.907-0.454-1.36-1.361-1.36-2.268v-49.89c6.35-4.082,10.432-11.338,10.432-19.502v-52.157c0-25.852-20.863-46.715-46.715-46.715
		h-5.896h-5.442c-25.853,0-46.715,20.863-46.715,46.715v52.157c0,8.164,4.081,15.421,10.431,19.502v49.89
		c0,0.907-0.453,1.814-1.36,2.268c-6.35,3.175-35.376,17.688-64.403,39.912c23.585,26.759,56.693,44.447,94.338,48.075l7.71-35.376
		c-21.771-30.388,1.814-32.202,5.896-32.202l0,0l0,0c4.082,0,27.667,1.361,5.896,32.202l7.71,35.376
		C626.087,366.464,659.649,348.775,683.233,322.017z"/>
</g>
</svg>
