<?xml version="1.0" encoding="utf-8"?>
<!-- Generator: Adobe Illustrator 16.0.0, SVG Export Plug-In . SVG Version: 6.00 Build 0)  -->
<!DOCTYPE svg PUBLIC "-//W3C//DTD SVG 1.1//EN" "http://www.w3.org/Graphics/SVG/1.1/DTD/svg11.dtd">
<svg version="1.1" id="Layer_1" xmlns="http://www.w3.org/2000/svg" xmlns:xlink="http://www.w3.org/1999/xlink" x="0px" y="0px"
	 width="479.217px" height="453.544px" viewBox="335.682 0 479.217 453.544" enable-background="new 335.682 0 479.217 453.544"
	 xml:space="preserve">
<title>redemption</title>
<desc>Created with Sketch.</desc>
<g>
	<g>
		<path fill="#F20127" d="M780.676,163.165h-8.012c-11.572-30.388-31.256-57.897-57.664-80.142v-0.199
			c-3.957-13.804-0.989-28.601,8.604-43.994c4.945-7.945,5.242-17.578,0.692-25.721C719.847,5.065,711.438,0,702.339,0
			c-1.088,0-2.176,0.099-3.165,0.199c-36.695,4.568-58.653,21.351-71.313,36.943c-21.958-6.058-44.707-9.137-67.852-9.137
			c-59.643,0-115.725,20.458-158.058,57.6c-42.729,37.539-66.27,87.59-66.27,140.919c0,13.804,1.583,27.608,4.847,41.114
			c0,0.199,0.099,0.497,0.198,0.695c0,0,0.099,0.199,0.198,0.596c3.363,13.605,8.309,26.913,14.738,39.525
			c10.583,23.139,23.342,42.404,37.685,57.301c20.375,21.054,23.837,47.669,24.332,58.394v5.264v0.993c0,0.496,0,0.993,0.099,1.391
			c1.187,12.215,11.572,21.649,23.837,21.649h73.688c13.154,0,23.936-10.825,23.936-24.033v-4.966
			c11.474,0.895,23.046,1.093,34.618,0.497v4.568c0,13.208,10.781,24.032,23.937,24.032h73.688
			c13.155,0,23.937-10.824,23.937-24.032v-18.074c0.099-4.271,1.78-24.529,20.869-42.008c0.891-0.795,1.88-1.589,2.77-2.384
			c0.1-0.1,0.1-0.1,0.198-0.198c0.197-0.199,0.494-0.397,0.692-0.596c24.728-22.246,43.224-49.357,53.905-78.951h6.924
			c18.793,0,34.124-15.393,34.124-34.262v-55.215C814.8,178.558,799.469,163.165,780.676,163.165z M791.062,252.642
			c0,5.76-4.649,10.427-10.386,10.427h-15.43c-5.242,0-9.792,3.376-11.375,8.441c-8.803,28.8-26.211,55.414-50.246,76.965
			c-0.099,0.099-0.099,0.099-0.197,0.198l-0.1,0.1c-0.89,0.794-1.78,1.589-2.67,2.383c-0.1,0.1-0.198,0.199-0.297,0.199
			c-25.914,23.635-28.585,51.441-28.783,59.387v0.298v18.272c0,0.1-0.099,0.199-0.197,0.199h-73.688c-0.1,0-0.198-0.1-0.198-0.199
			v-17.379c0-3.376-1.385-6.555-3.956-8.839c-2.176-1.985-5.045-3.078-7.913-3.078c-0.396,0-0.791,0-1.286,0.1
			c-8.11,0.894-16.319,1.291-24.431,1.291c-10.385,0-20.869-0.695-31.057-2.086c-3.363-0.496-6.825,0.596-9.396,2.88
			c-2.572,2.284-4.056,5.562-4.056,8.938v18.173c0,0.1-0.099,0.199-0.198,0.199h-73.688c-0.099,0-0.197-0.1-0.197-0.199v-5.561
			v-0.497c-0.594-13.308-4.748-47.072-31.058-74.184c-12.562-13.01-23.837-30.091-33.432-50.847
			c-0.099-0.198-0.099-0.298-0.198-0.396c-5.638-11.123-10.089-22.742-12.957-34.659c0-0.1-0.099-0.199-0.099-0.298v-0.199
			c-2.868-11.818-4.253-23.934-4.253-35.95c0-96.33,90.008-174.784,200.588-174.784c23.64,0,46.686,3.575,68.644,10.527
			c5.044,1.589,10.484-0.298,13.452-4.667c8.803-13.109,26.31-29.495,59.938-33.765c0.792-0.099,1.286,0.397,1.484,0.794
			c0.396,0.695,0.099,1.291-0.1,1.49c-13.154,21.053-17.012,42.901-11.275,63.161c0,0.099,0.099,0.298,0.099,0.397
			c0.1,3.476,1.682,6.753,4.451,8.938c26.903,21.848,46.389,49.555,56.379,80.142c1.582,4.866,6.132,8.243,11.275,8.243h0.099
			h16.222c5.736,0,10.385,4.668,10.385,10.428v55.017H791.062z"/>
		<path fill="#F20127" d="M561.727,173.181L505.42,312.556c-2.479,6.135-9.461,9.099-15.596,6.62s-9.099-9.461-6.62-15.596
			l67.414-166.87c4.036-9.99,18.181-9.99,22.217,0l67.414,166.87c2.479,6.135-0.485,13.117-6.62,15.596
			c-6.136,2.479-13.118-0.485-15.597-6.62L561.727,173.181z"/>
		<path fill="#F20127" d="M505.037,224.694c-6.616,0-11.98-5.364-11.98-11.98s5.364-11.98,11.98-11.98h113.379
			c6.616,0,11.98,5.364,11.98,11.98s-5.364,11.98-11.98,11.98H505.037z"/>
		<path fill="#F20127" d="M489.716,268.305c-6.617,0-11.98-5.364-11.98-11.98c0-6.616,5.363-11.98,11.98-11.98h144.021
			c6.616,0,11.98,5.364,11.98,11.98c0,6.617-5.364,11.98-11.98,11.98H489.716z"/>
	</g>
</g>
</svg>
