<svg xmlns="http://www.w3.org/2000/svg" viewBox="0 0 33.608 33.608">
  <defs>
    <style>
      .cls-1 {
        fill: #f20127;
      }
    </style>
  </defs>
  <path id="server" class="cls-1" d="M33.608,6.919C33.608,2.426,24.949,0,16.8,0S0,2.426,0,6.919a3.38,3.38,0,0,0,.158.988H0V26.689c0,4.494,8.659,6.919,16.8,6.919s16.8-2.426,16.8-6.919V7.908H33.45A3.38,3.38,0,0,0,33.608,6.919ZM16.8,1.977c8.487,0,14.827,2.61,14.827,4.942,0,.787-.767,1.651-2.161,2.43-2.805,1.574-7.54,2.513-12.666,2.513S6.943,10.923,4.138,9.349C2.744,8.57,1.977,7.706,1.977,6.919,1.977,4.587,8.317,1.977,16.8,1.977Zm0,29.654c-8.487,0-14.827-2.61-14.827-4.942V23.46a9.4,9.4,0,0,0,1.194.8c3.088,1.728,8.185,2.76,13.633,2.76.682,0,1.358-.016,2.022-.047,4.668-.219,8.906-1.2,11.609-2.712h0a0,0,0,0,1,0,0,9.618,9.618,0,0,0,1.194-.8v3.23c0,2.333-6.34,4.942-14.827,4.942Zm12.666-9.1C26.663,24.1,21.93,25.042,16.8,25.042c-.641,0-1.277-.016-1.9-.043-4.377-.2-8.309-1.091-10.764-2.465h0C2.746,21.75,1.977,20.886,1.977,20.1v-3.23a9.434,9.434,0,0,0,1.2.8c3.086,1.728,8.183,2.76,13.631,2.76s10.545-1.032,13.631-2.76a9.434,9.434,0,0,0,1.2-.8V20.1C31.631,20.886,30.862,21.75,29.47,22.531Zm0-6.591c-2.805,1.572-7.538,2.511-12.664,2.511S6.945,17.512,4.14,15.94c-1.394-.779-2.163-1.645-2.163-2.432v-3.23a9.4,9.4,0,0,0,1.194.8c3.088,1.73,8.183,2.762,13.633,2.762s10.545-1.032,13.633-2.762a9.4,9.4,0,0,0,1.194-.8v3.23C31.631,14.3,30.862,15.161,29.468,15.94Z"/>
</svg>
