<svg xmlns="http://www.w3.org/2000/svg" viewBox="0 0 35 35.035">
  <defs>
    <style>
      .cls-1 {
        fill: #f20127;
      }
    </style>
  </defs>
  <path id="shield" class="cls-1" d="M33.667,1.016a7,7,0,0,1-14,0H17.333a7,7,0,0,1-14,0H1V16.992C1,29.6,17.338,35.659,18.036,35.909l.387.142.39-.135C19.513,35.675,36,29.879,36,16.927V1.016H33.667ZM3.333,16.99V7.181a9.312,9.312,0,0,0,7,3.169,9.3,9.3,0,0,0,7-3.194V33.088C13.462,31.345,3.333,25.931,3.333,16.99Zm30.333-.063c0,9.088-10.017,14.38-14,16.128V7.153a9.3,9.3,0,0,0,7,3.194,9.31,9.31,0,0,0,7-3.166Z" transform="translate(-1 -1.016)"/>
</svg>
