<?xml version="1.0" encoding="utf-8"?>
<!-- Generator: Adobe Illustrator 16.0.0, SVG Export Plug-In . SVG Version: 6.00 Build 0)  -->
<!DOCTYPE svg PUBLIC "-//W3C//DTD SVG 1.1//EN" "http://www.w3.org/Graphics/SVG/1.1/DTD/svg11.dtd">
<svg version="1.1" id="Layer_1" xmlns="http://www.w3.org/2000/svg" xmlns:xlink="http://www.w3.org/1999/xlink" x="0px" y="0px"
	 width="344.587px" height="453.292px" viewBox="402.934 0.252 344.587 453.292"
	 enable-background="new 402.934 0.252 344.587 453.292" xml:space="preserve">
<title>trusted-relays-v1</title>
<desc>Created with Sketch.</desc>
<g>
	<g>
		<path fill="#F20127" d="M744.863,165.795c3.543,3.024,3.543,8.063,0,11.087l-9.618,9.575l7.593,11.591
			c2.531,3.527,1.519,8.567-2.024,11.086l-12.148,8.063l5.568,13.606c1.518,4.031-0.507,9.071-4.557,10.583l-12.654,5.04
			l2.531,13.102c0.506,4.536-2.025,8.567-6.581,9.575l-14.173,3.023v14.11c0,4.535-3.543,8.063-8.099,8.063h-13.667l-2.531,13.103
			c-1.013,4.535-5.062,7.559-9.617,6.551l-14.174-2.52l-5.568,13.606c-1.519,4.031-6.58,6.047-10.63,4.535l-12.654-5.039
			l-7.593,11.087c-2.531,4.031-7.593,5.039-11.137,2.52l-12.148-8.063l-10.123,10.079c-3.037,3.023-8.605,3.023-11.643,0
			l-9.617-9.575l-11.137,7.56c-3.543,2.52-8.605,1.512-11.136-2.016l-8.1-12.095l-13.667,5.543
			c-4.049,1.512-9.111-0.504-10.63-4.535l-5.062-12.599l-13.161,2.52c-4.556,0.504-8.605-2.016-9.617-6.551l-3.037-14.11h-14.68
			c-4.556,0-8.099-3.528-8.099-8.063V272.63l-13.161-2.52c-4.556-1.008-7.593-5.04-6.581-9.575l2.531-14.11l-13.667-5.543
			c-4.049-1.512-6.074-6.551-4.556-10.583l5.062-12.599l-11.136-7.559c-4.049-2.52-5.062-7.559-2.531-11.086l8.099-12.095
			l-10.124-10.079c-3.037-3.024-3.037-8.567,0-11.591l9.618-9.575l-7.593-11.086c-2.531-3.528-1.519-8.567,2.025-11.087
			l12.148-8.063l-5.568-13.606c-1.519-4.031,0.506-9.071,4.556-10.583l12.655-5.04l-2.531-13.102
			c-0.506-4.536,2.024-8.567,6.58-9.575l14.174-3.024V55.937c0-4.535,3.543-8.063,8.099-8.063h13.667l2.531-13.103
			c1.012-4.535,5.062-7.559,9.617-6.551l14.174,2.52l5.567-13.103c1.519-4.031,6.581-6.047,10.63-4.535l12.655,5.039l7.593-11.086
			c2.53-4.032,7.593-5.04,11.136-2.52l12.148,8.063L569.216,2.52c3.037-3.023,8.605-3.023,11.643,0l9.617,9.575l11.643-7.559
			c3.543-2.52,8.605-1.512,11.136,1.512l8.1,12.094l13.667-5.543c4.049-1.512,9.111,0.504,10.63,4.535l5.062,12.599l13.161-2.52
			c4.556-0.504,8.604,2.016,9.617,6.551l3.037,14.11h14.68c4.556,0,8.099,3.528,8.099,8.063v13.606l13.161,2.52
			c4.556,1.008,7.593,5.04,6.58,9.575l-2.53,14.11l13.16,6.047c4.05,1.512,6.074,6.551,4.557,10.583l-5.062,12.599l11.137,7.559
			c4.049,2.52,5.062,7.559,2.53,11.086l-8.099,12.095L744.863,165.795z M711.762,130.29l4.258-10.597l2.91-7.237l-18.301-8.409
			l3.437-19.161l-18.933-3.625V62.047H665.08l-2.408-11.191l-1.857-8.628l-18.902,3.619l-4.352-10.831l-2.815-7.012l-18.752,7.605
			l-10.821-16.159l-16.581,10.766l-13.554-13.493l-14.144,14.081l-16.619-11.03l-10.771,15.729l-10.532-4.194l-7.227-2.88
			l-7.752,18.241l-19.61-3.486l-3.645,18.864h-19.29V82.02l-11.216,2.393l-8.675,1.85l3.636,18.817l-10.897,4.34l-7.004,2.787
			l7.636,18.658l-16.459,10.924l10.719,15.651l-13.708,13.647l14.126,14.063l-11.068,16.529l15.775,10.708l-4.258,10.597l-2.814,7
			l18.805,7.627l-3.529,19.676l18.933,3.625v19.213H485.5l2.408,11.191l1.857,8.628l18.902-3.619l4.352,10.831l2.815,7.012
			l18.752-7.605l10.988,16.409l15.736-10.683l13.726,13.664l14.144-14.081l16.618,11.03l10.772-15.729l10.531,4.193l7.155,2.852
			l7.67-18.743l19.765,3.514l3.644-18.864h19.291v-19.469l11.216-2.393l8.674-1.85l-3.635-18.817l10.897-4.34l7.003-2.787
			l-7.635-18.658l16.563-10.993l-10.65-16.258l13.281-13.223l-13.873-13.812l11.069-16.529L711.762,130.29z M508.474,348.725
			l15.186-6.047l9.111,13.103c3.037,4.031,8.604,5.039,12.654,2.52l12.655-8.566l10.63,10.582c3.543,3.527,9.111,3.527,12.654,0
			l11.643-11.591l13.667,9.071c4.05,2.52,9.617,1.512,12.654-2.52l8.605-12.599l14.173,5.543c3.037,1.513,6.581,0.504,9.111-1.512
			v106.835l-75.928-35.275l-75.928,35.275V347.213C501.893,349.229,505.437,350.237,508.474,348.725z"/>
		<path fill="#F20127" d="M451.854,204.45l-9.704-6.586l9.726-14.523l-12.308-12.253l11.978-11.925l-9.257-13.517l14.156-9.396
			l-6.616-16.167l4.607-1.834l10.896-4.339l-3.088-15.987h28.464c1.164-0.011,2.248,0.597,2.85,1.599s0.632,2.249,0.079,3.279
			c-3.427,6.092-4.291,13.309-2.398,20.044c2.376,6.562,7.556,11.707,14.112,14.017c11.909,4.469,25.171,3.444,36.26-2.803
			l34.474-19.399c1.005-0.578,2.279-0.34,3.012,0.561l72.127,88.222l8.926,10.821c2.919,3.266,4.231,7.673,3.579,12.014
			c-0.653,4.341-3.204,8.161-6.954,10.413c-5.822,3.393-13.186,2.439-17.962-2.327l-1.228-1.177
			c-0.09-0.135-0.269-0.177-0.408-0.096c-0.141,0.082-0.193,0.258-0.122,0.404c1.105,5.737-1.283,11.585-6.08,14.886
			c-5.954,3.958-13.856,3.161-18.91-1.906l-1.088-1.065c-0.09-0.135-0.269-0.177-0.408-0.096c-0.141,0.082-0.193,0.258-0.121,0.404
			c1.104,5.695-1.235,11.509-5.969,14.83c-5.961,3.973-13.881,3.176-18.938-1.906l-1.088-1.065c-0.09-0.135-0.269-0.177-0.409-0.095
			c-0.14,0.081-0.192,0.258-0.121,0.404c1.135,5.852-1.376,11.81-6.347,15.063s-11.408,3.149-16.273-0.261
			c-0.057-0.064-0.057-0.161,0-0.225l1.339-2.383c5.997-10.244,4.506-23.243-3.653-31.846c-3.854-3.904-8.848-6.467-14.253-7.317
			c-3.285-5.658-8.606-9.833-14.866-11.662c-2.429-8.593-9.143-15.289-17.711-17.662c-2.562-9.185-9.988-16.179-19.274-18.151
			c-9.285-1.973-18.893,1.402-24.934,8.76l-9.957,12.25H451.854z M687.375,97.656l-2.634,14.687l16.002,7.353l-2.133,5.309
			l-4.258,10.597l13.572,9.212l-9.726,14.523l11.735,11.684v0.635l-11.06,11.01l9.26,14.135l-11.608,7.704h-9.686
			c-2.367,0.006-4.661,0.827-6.499,2.327l-3.766,3.083c-0.966,0.771-2.368,0.622-3.151-0.336l-88.5-108.098
			c-2.228-2.73-6.082-3.462-9.148-1.738l-40.554,22.847c-8.151,4.579-17.964,5.066-26.524,1.318
			c-2.819-1.221-4.828-3.797-5.336-6.84c-0.507-3.043,0.557-6.136,2.825-8.214l47.639-36.444c13.045-9.95,30.275-12.431,45.575-6.56
			l75.947,29.127C679.217,96.442,683.267,97.343,687.375,97.656z M494.083,197.75c5.791,3.432,7.746,10.915,4.379,16.764
			c0,0-0.167,1.29,1.199,1.093c4.581-2.554,10.268-1.918,14.18,1.584c3.911,3.502,5.193,9.107,3.196,13.975
			c0,0-0.39,1.626,1.451,1.29c3.903-1.494,8.293-0.904,11.67,1.568c3.376,2.472,5.281,6.49,5.064,10.683
			c-0.016,0.134,0.044,0.267,0.155,0.343c0.111,0.077,0.256,0.085,0.375,0.021c4.537-2.07,9.863-1.232,13.555,2.13
			c4.362,4.19,5.265,10.854,2.176,16.063l-1.812,3.196c-1.81,3.18-4.904,5.413-8.48,6.118c-3.577,0.705-7.281-0.188-10.151-2.445
			l-0.53-0.42c-2.457-1.933-4.101-4.726-4.602-7.821c-0.022-0.242-0.167-0.455-0.383-0.563s-0.472-0.097-0.678,0.03
			c-4.323,2.249-9.555,1.756-13.388-1.262l-0.837-0.645c-3.386-2.67-5.148-6.916-4.657-11.213c0.023-0.233-0.08-0.461-0.271-0.595
			c-0.191-0.134-0.439-0.153-0.649-0.05c-4.287,2.209-9.462,1.706-13.248-1.29l-1.199-0.953c-3.634-2.873-5.358-7.551-4.463-12.11
			c0.065-0.238-0.023-0.491-0.223-0.635s-0.467-0.148-0.67-0.01c-4.335,2.518-9.759,2.129-13.694-0.981l-1.479-1.149
			c-2.589-2.046-4.251-5.051-4.612-8.341c-0.362-3.29,0.606-6.587,2.688-9.152l9.679-11.942
			C481.697,196.057,488.6,194.665,494.083,197.75z"/>
	</g>
</g>
</svg>
