<svg xmlns="http://www.w3.org/2000/svg" viewBox="0 0 30.531 30.49">
  <defs>
    <style>
      .cls-1 {
        fill: #f20127;
      }
    </style>
  </defs>
  <path id="user" class="cls-1" d="M30.5,29.572c-.113-4.819-4.982-8.966-11.7-10.06V17.048a8.958,8.958,0,0,0,1.921-3.288,3.16,3.16,0,0,0,1.424-1.853,2.717,2.717,0,0,0-.369-2.922,5.313,5.313,0,0,0,.027-1.3,4.486,4.486,0,0,1,.348-2.454,2.365,2.365,0,0,0,.19-1.695C21.552,1.257,19.247,0,15.855,0l-.473.009c-2.355.084-3.062,1.076-3.535,2-.059.111-.138.262-.138.271-3.071.274-3.044,2.814-3.02,4.855l.005.662c0,.368.016.751.047,1.146-.762.538-.9,1.8-.321,3.115a3.337,3.337,0,0,0,1.343,1.6,8.871,8.871,0,0,0,2.115,3.524v2.3C5.066,20.54.123,24.7.01,29.572l-.022.918H30.519l-.02-.918ZM1.9,28.7c.7-3.756,5.128-6.853,10.98-7.54l.791-.093V16.282l-.387-.269a6.8,6.8,0,0,1-1.955-3.32l-.149-.5-.527-.091a1.562,1.562,0,0,1-.592-.768,2.285,2.285,0,0,1-.2-.744l.915.256L10.6,9.5a13.615,13.615,0,0,1-.115-1.7l-.005-.682c-.027-2.405.091-2.931,1.386-3.047A1.913,1.913,0,0,0,13.44,2.83c.269-.524.5-.974,2.009-1.029l.407-.007c1.487,0,4.087.3,4.787,2.3a2.567,2.567,0,0,1-.161.493,6.276,6.276,0,0,0-.456,3.323,5.131,5.131,0,0,1-.072,1.211l-.16,1.444.791-.086a2.142,2.142,0,0,1-.135.847,3.6,3.6,0,0,1-.425.814H19.38l-.2.613a6.908,6.908,0,0,1-1.81,3.171l-.355.269v4.889l.786.1c5.759.719,10.117,3.808,10.815,7.519H1.9Z" transform="translate(0.012)"/>
</svg>
