<?xml version="1.0" encoding="utf-8"?>
<!-- Generator: Adobe Illustrator 16.0.0, SVG Export Plug-In . SVG Version: 6.00 Build 0)  -->
<!DOCTYPE svg PUBLIC "-//W3C//DTD SVG 1.1//EN" "http://www.w3.org/Graphics/SVG/1.1/DTD/svg11.dtd">
<svg version="1.1" id="Layer_1" xmlns="http://www.w3.org/2000/svg" xmlns:xlink="http://www.w3.org/1999/xlink" x="0px" y="0px"
	 width="411.025px" height="364.961px" viewBox="369.778 31.89 411.025 364.961"
	 enable-background="new 369.778 31.89 411.025 364.961" xml:space="preserve">
<title>hd-wallet</title>
<desc>Created with Sketch.</desc>
<g>
	<g transform="translate(-1240.000000, -556.000000)">
		<g transform="translate(1240.000000, 556.000000)">
			<g>
				<path fill="#F20127" d="M745.07,111.962c19.737,0,35.741,15.945,35.732,35.611v204.764c0,24.581-19.998,44.515-44.677,44.515
					H414.455c-24.679,0-44.677-19.934-44.677-44.515V94.157c0-19.666,16.003-35.611,35.741-35.611h0.018h180.226l72.357-26.121
					c4.593-1.665,9.668,0.686,11.33,5.244l7.631,20.877h32.248c19.738,0,35.741,15.945,35.741,35.611V111.962z M709.329,76.351
					h-25.761l13.001,35.611h30.63V94.157C727.199,84.328,719.202,76.351,709.329,76.351z M588.192,76.351l-98.628,35.611h188.196
					l-12.412-34l-9.488-26.032l-18.327,6.615h0.019l-49.27,17.805H588.192z M405.528,76.351c-9.865,0-17.871,7.977-17.871,17.806
					s8.006,17.806,17.871,17.806h32.479c0.125-0.044,0.188-0.143,0.312-0.187l98.11-35.424H405.528z M762.94,290.018v-71.222
					v-71.222c0-9.829-7.997-17.806-17.87-17.806H405.528c-6.541,0-12.599-1.887-17.871-4.941v227.51
					c0,14.752,12.009,26.709,26.806,26.709h321.671c14.814,0,26.806-11.957,26.806-26.709V290.018z"/>
				<path fill="#F20127" d="M616.644,186.792h-38.23c-1.758,0-3.296,1.537-3.296,3.293v53.779c0,1.756-1.538,3.292-3.296,3.292
					h-32.299c-1.757,0-3.295-1.537-3.295-3.292v-37.536c0-3.731-3.076-6.805-6.812-6.805h-25.268c-3.735,0-6.812,3.073-6.812,6.805
					v90.437c0,3.731,3.076,6.804,6.812,6.804h25.268c3.735,0,6.812-3.072,6.812-6.804v-37.536c0-1.756,1.538-3.292,3.295-3.292
					h32.738c1.758,0,3.296,1.537,3.296,3.292v53.998c0,1.757,1.538,3.293,3.296,3.293h38.23c1.318,0,2.417,0.878,2.856,1.976
					c2.637,7.244,10.327,12.292,19.115,10.756c7.031-1.317,12.524-6.805,13.843-13.609c2.196-11.195-6.372-21.072-17.139-21.072
					c-7.47,0-13.622,4.609-16.259,10.975c-0.439,1.317-1.538,1.976-2.856,1.976h-29.442c-1.757,0-3.295-1.536-3.295-3.292V259.01
					c0-1.756,1.538-3.293,3.295-3.293h29.442c1.318,0,2.417,0.878,2.856,1.976c2.856,7.463,10.767,12.292,19.555,10.756
					c7.031-1.317,12.524-6.805,13.843-13.609c2.196-11.195-6.372-21.072-17.139-21.072c-7.47,0-13.622,4.609-16.259,10.975
					c-0.439,1.317-1.538,1.976-2.856,1.976h-29.442c-1.757,0-3.295-1.537-3.295-3.292v-45.218c0-1.756,1.538-3.292,3.295-3.292
					h29.442c1.318,0,2.417,0.878,2.856,1.976c3.076,8.122,10.767,12.951,19.555,11.414c7.031-1.317,12.524-6.805,13.843-13.609
					c2.196-11.195-6.372-21.072-17.139-21.072c-7.47,0-13.622,4.609-16.259,10.975C619.061,185.915,617.962,186.792,616.644,186.792
					z"/>
			</g>
		</g>
	</g>
</g>
</svg>
