<svg xmlns="http://www.w3.org/2000/svg" viewBox="0 0 34 28.03">
  <defs>
    <style>
      .cls-1 {
        fill: #f20127;
      }
    </style>
  </defs>
  <path id="wallet" class="cls-1" d="M3.128,2a3.093,3.093,0,0,0-3.1,3.076H0V26.954A3.091,3.091,0,0,0,3.1,30.03H30.084V26.72H34V2H3.128ZM3.1,28.028A1.089,1.089,0,0,1,2,26.952V7.786c.048.014.108.01.156.024a3.42,3.42,0,0,0,.906.142c.014,0,.024.006.038.006H28.086v6.07H22.368a3.068,3.068,0,0,0-3.126,3v2a3.068,3.068,0,0,0,3.126,3h5.718v6H3.1Zm19.266-8a1.069,1.069,0,0,1-1.126-1v-2a1.07,1.07,0,0,1,1.126-1H32v4H22.366ZM32,24.718H30.084v-2.69H32Zm-1.916-10.69V5.958H3.128c-.546,0-1.1-.274-1.1-.882A1.092,1.092,0,0,1,3.128,4H32V14.028Z" transform="translate(0 -2)"/>
</svg>
