<svg xmlns="http://www.w3.org/2000/svg" viewBox="0 0 36.48 36.48">
  <defs>
    <style>
      .cls-1 {
        fill: #f20127;
      }
    </style>
  </defs>
  <path id="world" class="cls-1" d="M18.256,0A18.24,18.24,0,1,0,36.5,18.24,18.261,18.261,0,0,0,18.256,0ZM2.216,19.313h6.3a25.244,25.244,0,0,0,1.1,6.438H4.033a15.935,15.935,0,0,1-1.818-6.438Zm6.3-2.146h-6.3A15.935,15.935,0,0,1,4.033,10.73H9.613A25.237,25.237,0,0,0,8.518,17.167Zm3.367-6.438H24.537a23.131,23.131,0,0,1,1.221,6.438H10.664A23.054,23.054,0,0,1,11.885,10.73Zm-1.221,8.584h15.1a23.217,23.217,0,0,1-1.227,6.438H11.891A23.139,23.139,0,0,1,10.664,19.313Zm17.242,0H34.3a15.935,15.935,0,0,1-1.818,6.438H26.806a25.244,25.244,0,0,0,1.1-6.438Zm0-2.146a25.237,25.237,0,0,0-1.094-6.438h5.667A16,16,0,0,1,34.3,17.167Zm3.2-8.584H26.05A26.157,26.157,0,0,0,22.724,2.79,16.135,16.135,0,0,1,31.1,8.584ZM19.454,2.206a24.3,24.3,0,0,1,4.232,6.378H12.737A24.249,24.249,0,0,1,16.964,2.21c.427-.032.854-.064,1.292-.064C18.66,2.146,19.057,2.178,19.454,2.206Zm-5.775.612a26.1,26.1,0,0,0-3.3,5.766H5.409a16.132,16.132,0,0,1,8.27-5.766ZM5.409,27.9h4.972a26.059,26.059,0,0,0,3.32,5.77A16.116,16.116,0,0,1,5.409,27.9ZM16.99,34.27A24.367,24.367,0,0,1,12.746,27.9H23.677a24.308,24.308,0,0,1-4.247,6.378c-.388.028-.779.06-1.174.06C17.827,34.335,17.409,34.3,16.99,34.27ZM22.7,33.7a26.13,26.13,0,0,0,3.341-5.8H31.1A16.133,16.133,0,0,1,22.7,33.7Z" transform="translate(-0.016)"/>
</svg>
