<?xml version="1.0" standalone="no"?>
<!DOCTYPE svg PUBLIC "-//W3C//DTD SVG 20010904//EN"
 "http://www.w3.org/TR/2001/REC-SVG-20010904/DTD/svg10.dtd">
<svg version="1.0" xmlns="http://www.w3.org/2000/svg"
 width="600.000000pt" height="600.000000pt" viewBox="0 0 600.000000 600.000000"
 preserveAspectRatio="xMidYMid meet">
<metadata>
Created by potrace 1.14, written by Peter Selinger 2001-2017
</metadata>
<g transform="translate(0.000000,600.000000) scale(0.100000,-0.100000)"
fill="#000000" stroke="none">
<path d="M2555 5712 c-22 -1 -47 -6 -55 -9 -8 -3 -18 -6 -22 -5 -25 5 -204
-65 -285 -112 -123 -71 -132 -77 -157 -100 -12 -10 -35 -25 -53 -32 -31 -14
-53 -46 -72 -109 -5 -17 -37 -104 -71 -195 -34 -91 -63 -169 -64 -175 -8 -35
-42 -124 -55 -145 -13 -20 -14 -23 -1 -15 12 7 13 6 3 -6 -6 -8 -14 -27 -17
-42 -2 -15 -7 -30 -10 -35 -6 -10 -18 -60 -19 -84 -1 -10 -5 -18 -9 -18 -4 0
-7 -3 -6 -7 1 -5 -4 -26 -10 -47 -6 -22 -9 -43 -6 -48 3 -4 1 -8 -3 -8 -5 0
-14 -24 -21 -52 -6 -29 -14 -61 -17 -70 -5 -18 -14 -55 -18 -73 -2 -5 -6 -16
-10 -22 -5 -7 -5 -17 -2 -23 3 -5 2 -10 -3 -10 -5 0 -9 -6 -9 -12 -1 -7 -4
-29 -7 -48 -4 -19 -8 -47 -10 -61 -1 -14 -5 -30 -8 -35 -3 -5 -9 -31 -12 -59
-4 -27 -9 -57 -11 -65 -2 -8 -7 -31 -10 -50 -3 -19 -8 -42 -10 -50 -2 -8 -7
-31 -10 -50 -2 -19 -10 -60 -15 -90 -38 -197 -51 -269 -55 -300 -3 -19 -7 -46
-10 -59 -2 -13 -7 -48 -11 -79 -7 -58 -11 -85 -14 -89 -2 -2 -4 -12 -5 -23 -1
-11 -4 -22 -5 -25 -4 -7 -5 -15 -14 -65 -5 -25 -16 -81 -26 -125 -11 -44 -22
-98 -25 -120 -4 -22 -10 -60 -14 -85 -9 -57 -5 -146 9 -182 5 -16 15 -41 21
-58 6 -16 17 -30 25 -30 7 0 15 -8 18 -17 3 -10 21 -27 38 -38 18 -10 54 -32
80 -47 26 -15 81 -39 123 -53 116 -37 110 -31 112 -132 13 -748 30 -1530 39
-1788 3 -82 6 -211 7 -285 l2 -135 1515 -3 c1002 -1 1517 1 1524 8 7 7 6 10
-2 10 -7 0 -12 7 -12 15 0 8 -5 15 -12 15 -6 0 -8 3 -5 7 4 3 -1 12 -11 20
-10 9 -11 12 -2 7 8 -4 4 5 -10 21 -14 16 -18 25 -10 21 8 -4 6 0 -4 8 -11 9
-16 16 -11 16 5 0 0 7 -11 16 -10 8 -12 12 -4 8 8 -4 4 5 -10 21 -14 16 -18
25 -10 20 8 -5 5 3 -8 17 -12 13 -19 27 -16 31 4 4 -1 9 -10 13 -9 3 -13 10
-10 15 3 5 0 9 -6 9 -6 0 -8 5 -5 10 3 6 2 10 -2 10 -5 0 -14 9 -21 21 -11 17
-11 20 0 13 7 -4 5 2 -4 13 -10 11 -18 23 -18 28 0 5 -10 20 -22 33 -13 14
-17 22 -11 18 9 -5 11 -2 7 8 -3 9 -9 14 -14 11 -4 -2 -12 7 -19 21 -9 20 -9
24 1 19 7 -4 6 -1 -2 7 -24 20 -55 72 -39 63 8 -3 6 0 -3 8 -10 8 -18 20 -18
27 0 8 -10 25 -22 38 -13 14 -16 22 -8 17 8 -4 5 2 -7 14 -13 12 -23 28 -23
36 0 8 -5 15 -12 15 -6 0 -8 3 -5 6 4 4 -2 19 -13 34 -11 15 -17 30 -13 34 3
3 1 6 -5 6 -7 0 -12 7 -12 15 0 8 -5 15 -11 15 -5 0 -7 5 -4 10 3 6 1 10 -5
10 -6 0 -8 5 -5 10 3 6 1 10 -5 10 -32 0 21 31 208 122 112 55 216 104 229
109 20 7 23 12 14 23 -6 7 -8 16 -4 19 3 4 1 7 -6 7 -7 0 -9 5 -6 10 3 6 1 10
-5 10 -6 0 -8 4 -5 10 3 5 1 10 -5 10 -6 0 -8 5 -5 10 3 6 1 10 -5 10 -6 0 -8
5 -5 10 3 5 1 10 -5 10 -6 0 -8 5 -5 10 3 5 1 10 -5 10 -6 0 -8 5 -5 10 3 6 1
10 -5 10 -6 0 -8 4 -5 10 3 5 1 10 -5 10 -6 0 -8 5 -5 10 3 5 2 10 -4 10 -6 0
-8 7 -5 15 4 8 -1 17 -10 21 -9 3 -13 10 -10 15 3 5 0 9 -6 9 -6 0 -8 5 -5 10
3 6 1 10 -5 10 -6 0 -9 4 -5 9 3 5 1 12 -5 16 -6 4 -8 11 -5 16 4 5 2 9 -2 9
-5 0 -14 9 -21 21 -11 17 -11 20 0 13 7 -4 4 2 -6 14 -11 12 -15 22 -11 22 5
0 0 7 -11 16 -10 8 -12 13 -4 9 10 -4 9 -2 -2 8 -10 8 -15 17 -11 20 3 4 2 7
-4 7 -6 0 -14 7 -17 16 -3 8 -2 12 4 9 5 -3 -6 22 -25 55 -19 33 -29 57 -22
53 6 -4 2 6 -11 21 -12 16 -19 32 -16 37 3 5 0 9 -6 9 -6 0 -8 5 -5 10 3 5 1
10 -5 10 -6 0 -8 4 -5 10 3 5 1 10 -4 10 -6 0 -10 3 -9 8 4 11 -35 106 -46
114 -6 4 -7 8 -3 8 5 0 0 16 -12 36 -12 19 -21 44 -21 55 0 10 -5 19 -11 19
-6 0 -9 7 -5 15 3 8 1 15 -5 15 -6 0 -7 4 -4 10 3 6 1 10 -4 10 -6 0 -10 3 -9
8 1 4 -3 17 -10 28 -6 12 -8 24 -5 28 3 3 2 6 -4 6 -6 0 -14 7 -17 16 -4 10
-2 13 6 8 7 -4 3 6 -9 22 -11 16 -18 36 -15 44 3 8 1 12 -3 7 -11 -9 -37 52
-28 66 3 6 1 7 -5 3 -11 -6 -16 6 -13 27 0 4 -4 7 -9 7 -6 0 -5 6 2 14 7 8 15
14 18 14 21 -1 30 4 30 17 0 8 6 12 13 10 6 -3 24 5 39 18 l26 23 -29 47 c-23
37 -35 47 -57 48 -27 1 -40 3 -54 9 -5 1 -11 3 -15 4 -5 1 -28 9 -53 18 -41
16 -67 48 -76 91 -1 4 -3 9 -4 12 -1 3 -3 8 -4 13 -1 4 -5 13 -9 20 -5 6 -5
17 -2 22 4 6 3 16 -2 23 -6 7 -9 36 -9 66 l1 55 75 53 c41 30 84 62 95 71 11
9 44 35 73 57 45 33 52 44 52 73 0 23 -4 31 -12 26 -8 -5 -9 -2 -5 10 7 19
-31 79 -45 70 -4 -3 -8 0 -8 5 0 6 -3 10 -7 9 -18 -4 -83 15 -83 24 0 5 -4 6
-10 3 -5 -3 -10 -1 -10 5 0 6 -4 8 -10 5 -6 -3 -10 -1 -10 5 0 6 -4 8 -10 5
-6 -3 -10 -2 -10 3 0 9 -50 37 -62 34 -5 -1 -8 2 -8 8 0 6 -3 9 -8 8 -4 -2
-14 3 -22 10 -8 7 -44 32 -80 55 -71 46 -69 42 -75 136 -2 36 -6 89 -9 116 -3
28 -7 84 -11 125 -3 41 -8 91 -10 110 -4 28 10 74 65 210 73 178 75 191 55
270 -4 14 -10 41 -15 60 -5 19 -16 62 -25 95 -24 85 -27 98 -27 118 1 9 -3 17
-7 17 -4 0 -8 6 -9 13 -5 38 -9 54 -16 65 -4 6 -5 12 -2 12 2 0 0 15 -6 33 -5
17 -11 39 -13 47 -1 8 -5 23 -9 32 -4 9 -5 21 -2 27 4 5 1 13 -5 16 -5 4 -8
13 -5 21 3 8 2 14 -3 14 -4 0 -8 6 -8 13 -1 21 -14 80 -19 89 -7 11 -16 49
-17 76 -1 12 -5 22 -10 22 -5 0 -7 6 -4 14 3 8 3 17 -1 20 -3 4 -8 14 -10 24
-2 9 -5 26 -7 37 -7 34 -13 60 -16 65 -1 3 -3 10 -4 15 -11 42 -21 56 -44 61
-14 4 -30 10 -36 15 -5 4 -13 8 -17 8 -5 1 -9 1 -10 2 -2 0 -11 2 -20 5 -10 2
-26 6 -35 8 -10 3 -20 5 -23 6 -3 1 -8 2 -12 1 -5 0 -8 3 -8 8 0 6 -9 8 -20 6
-11 -2 -20 1 -20 7 0 6 -3 9 -6 5 -3 -3 -23 1 -45 8 -21 8 -39 12 -39 8 0 -3
-6 -1 -12 4 -7 6 -26 14 -43 18 -16 5 -34 9 -40 11 -30 9 -61 16 -72 16 -7 1
-13 4 -13 8 0 4 -6 7 -12 8 -7 0 -24 3 -38 7 -14 3 -30 7 -37 9 -7 1 -15 5
-19 8 -3 4 -12 4 -20 1 -8 -3 -14 1 -14 8 0 7 -3 10 -6 7 -3 -4 -21 0 -40 8
-19 8 -34 11 -34 7 0 -4 -5 -2 -12 5 -7 7 -25 12 -40 12 -15 0 -28 4 -28 8 0
5 -6 9 -12 10 -23 2 -43 7 -55 15 -7 5 -13 6 -13 3 0 -2 -15 0 -32 5 -64 19
-135 26 -203 21z"/>
</g>
</svg>
