<svg xmlns="http://www.w3.org/2000/svg" xmlns:xlink="http://www.w3.org/1999/xlink" viewBox="0 0 525.5 539">
  <defs>
    <style>
      .cls-1, .cls-2 {
        fill: none;
        stroke: #fff;
        stroke-width: 0.5px;
      }

      .cls-1 {
        opacity: 0.21;
      }

      .cls-2 {
        opacity: 0.15;
      }

      .cls-3 {
        fill: #f83553;
      }

      .cls-16, .cls-3, .cls-8, .cls-9 {
        opacity: 0.59;
      }

      .cls-4 {
        fill: url(#linear-gradient);
      }

      .cls-5 {
        fill: rgba(242,1,39,0.5);
      }

      .cls-6 {
        fill: rgba(242,1,39,0.15);
      }

      .cls-7 {
        opacity: 0.44;
        fill: url(#linear-gradient-2);
      }

      .cls-8 {
        fill: #f83554;
      }

      .cls-9 {
        fill: #d5d5d5;
      }

      .cls-10 {
        fill: url(#linear-gradient-10);
      }

      .cls-11 {
        fill: rgba(255,255,255,0.81);
      }

      .cls-12 {
        fill: rgba(255,255,255,0.15);
      }

      .cls-13 {
        opacity: 0.3;
        fill: url(#linear-gradient-11);
      }

      .cls-14, .cls-16, .cls-17, .cls-18, .cls-19, .cls-20, .cls-21, .cls-22, .cls-23, .cls-24, .cls-25, .cls-26, .cls-27 {
        fill: #fff;
      }

      .cls-15 {
        fill: #f20127;
      }

      .cls-17 {
        opacity: 0.19;
      }

      .cls-18 {
        opacity: 0.08;
      }

      .cls-19 {
        opacity: 0.53;
      }

      .cls-20 {
        opacity: 0.42;
      }

      .cls-21 {
        opacity: 0.49;
      }

      .cls-22 {
        opacity: 0.11;
      }

      .cls-23 {
        opacity: 0.38;
      }

      .cls-24 {
        opacity: 0.32;
      }

      .cls-25 {
        opacity: 0.4;
      }

      .cls-26 {
        opacity: 0.39;
      }

      .cls-27 {
        opacity: 0.36;
      }

      .cls-28 {
        filter: url(#Ellipse_117);
      }

      .cls-29 {
        filter: url(#Ellipse_118);
      }

      .cls-30 {
        filter: url(#Ellipse_116);
      }

      .cls-31 {
        filter: url(#Ellipse_114);
      }

      .cls-32 {
        filter: url(#Path_57);
      }

      .cls-33 {
        filter: url(#Path_53);
      }

      .cls-34 {
        filter: url(#Path_49);
      }

      .cls-35 {
        filter: url(#Path_41);
      }
    </style>
    <linearGradient id="linear-gradient" x1="0.5" x2="0.5" y2="0.776" gradientUnits="objectBoundingBox">
      <stop offset="0" stop-color="#f93856"/>
      <stop offset="1" stop-color="#f20127"/>
    </linearGradient>
    <filter id="Path_41" x="337.5" y="101.947" width="112" height="394.053" filterUnits="userSpaceOnUse">
      <feOffset dy="-6" input="SourceAlpha"/>
      <feGaussianBlur stdDeviation="10" result="blur"/>
      <feFlood flood-color="#f20127"/>
      <feComposite operator="in" in2="blur"/>
      <feComposite in="SourceGraphic"/>
    </filter>
    <linearGradient id="linear-gradient-2" x1="0.5" x2="0.5" y2="1" gradientUnits="objectBoundingBox">
      <stop offset="0" stop-color="#f20127" stop-opacity="0"/>
      <stop offset="1" stop-color="#f20127" stop-opacity="0.2"/>
    </linearGradient>
    <filter id="Path_49" x="223.5" y="209" width="112" height="287" filterUnits="userSpaceOnUse">
      <feOffset dy="-6" input="SourceAlpha"/>
      <feGaussianBlur stdDeviation="10" result="blur-2"/>
      <feFlood flood-color="#f20127"/>
      <feComposite operator="in" in2="blur-2"/>
      <feComposite in="SourceGraphic"/>
    </filter>
    <filter id="Path_53" x="113.5" y="319" width="112" height="177" filterUnits="userSpaceOnUse">
      <feOffset dy="-6" input="SourceAlpha"/>
      <feGaussianBlur stdDeviation="10" result="blur-3"/>
      <feFlood flood-color="#f20127"/>
      <feComposite operator="in" in2="blur-3"/>
      <feComposite in="SourceGraphic"/>
    </filter>
    <linearGradient id="linear-gradient-10" x1="0.986" y1="0.013" x2="0.064" y2="0.972" gradientUnits="objectBoundingBox">
      <stop offset="0" stop-color="#fff"/>
      <stop offset="1" stop-color="#dadada"/>
    </linearGradient>
    <filter id="Path_57" x="0.5" y="386" width="112" height="114" filterUnits="userSpaceOnUse">
      <feOffset dy="-2" input="SourceAlpha"/>
      <feGaussianBlur stdDeviation="10" result="blur-4"/>
      <feFlood flood-color="#fff" flood-opacity="0.369"/>
      <feComposite operator="in" in2="blur-4"/>
      <feComposite in="SourceGraphic"/>
    </filter>
    <linearGradient id="linear-gradient-11" x1="0.5" x2="0.5" y2="1" gradientUnits="objectBoundingBox">
      <stop offset="0" stop-color="#fff" stop-opacity="0"/>
      <stop offset="1" stop-color="#fff" stop-opacity="0.2"/>
    </linearGradient>
    <filter id="Ellipse_114" x="46.5" y="342" width="47" height="47" filterUnits="userSpaceOnUse">
      <feOffset input="SourceAlpha"/>
      <feGaussianBlur stdDeviation="6" result="blur-5"/>
      <feFlood flood-color="#fff" flood-opacity="0.349"/>
      <feComposite operator="in" in2="blur-5"/>
      <feComposite in="SourceGraphic"/>
    </filter>
    <filter id="Ellipse_116" x="268" y="159.5" width="50" height="50" filterUnits="userSpaceOnUse">
      <feOffset input="SourceAlpha"/>
      <feGaussianBlur stdDeviation="6.5" result="blur-6"/>
      <feFlood flood-color="#f20127"/>
      <feComposite operator="in" in2="blur-6"/>
      <feComposite in="SourceGraphic"/>
    </filter>
    <filter id="Ellipse_118" x="158" y="271.5" width="50" height="50" filterUnits="userSpaceOnUse">
      <feOffset input="SourceAlpha"/>
      <feGaussianBlur stdDeviation="6.5" result="blur-7"/>
      <feFlood flood-color="#f20127"/>
      <feComposite operator="in" in2="blur-7"/>
      <feComposite in="SourceGraphic"/>
    </filter>
    <filter id="Ellipse_117" x="382" y="52.5" width="50" height="50" filterUnits="userSpaceOnUse">
      <feOffset input="SourceAlpha"/>
      <feGaussianBlur stdDeviation="6.5" result="blur-8"/>
      <feFlood flood-color="#f20127"/>
      <feComposite operator="in" in2="blur-8"/>
      <feComposite in="SourceGraphic"/>
    </filter>
  </defs>
  <g id="Illustartion_3" data-name="Illustartion 3" transform="translate(-255.5 -3924)">
    <line id="Line_79" data-name="Line 79" class="cls-1" x1="144" transform="translate(255.5 4285.311)"/>
    <line id="Line_88" data-name="Line 88" class="cls-1" x2="39" transform="translate(470.5 4285.311)"/>
    <line id="Line_87" data-name="Line 87" class="cls-1" x2="43" transform="translate(580.5 4285.311)"/>
    <line id="Line_86" data-name="Line 86" class="cls-1" x2="81" transform="translate(694.5 4285.311)"/>
    <line id="Line_80" data-name="Line 80" class="cls-2" x1="366" transform="translate(255.5 4061.947)"/>
    <line id="Line_83" data-name="Line 83" class="cls-1" x2="82" transform="translate(693.5 4061.5)"/>
    <path id="Path_44" data-name="Path 44" class="cls-3" d="M292.381,1718.789h52l-19,14-33,1Z" transform="translate(349.619 2329.211)"/>
    <g class="cls-35" transform="matrix(1, 0, 0, 1, 255.5, 3924)">
      <path id="Path_41-2" data-name="Path 41" class="cls-4" d="M270.046,2069.323V1735.27h52v334.053Z" transform="translate(97.45 -1597.32)"/>
    </g>
    <path id="Path_42" data-name="Path 42" class="cls-5" d="M350.126,2051.786v-333l-19,13.962,0,334.038Z" transform="translate(343.874 2329.214)"/>
    <path id="Path_43" data-name="Path 43" class="cls-6" d="M270.308,1732.814l19-14v14Z" transform="translate(352.692 2329.186)"/>
    <rect id="Rectangle_72" data-name="Rectangle 72" class="cls-7" width="52" height="124" transform="translate(642 3924)"/>
    <path id="Path_233" data-name="Path 233" class="cls-7" d="M0,0H52V126H0Z" transform="translate(623 3936)"/>
    <path id="Path_48" data-name="Path 48" class="cls-8" d="M292.381,1718.789h52l-19,14-33,1Z" transform="translate(235.619 2436.211)"/>
    <g class="cls-34" transform="matrix(1, 0, 0, 1, 255.5, 3924)">
      <path id="Path_49-2" data-name="Path 49" class="cls-4" d="M270.046,1962.237v-227h52v227Z" transform="translate(-16.55 -1490.24)"/>
    </g>
    <path id="Path_50" data-name="Path 50" class="cls-5" d="M350.142,1940.006l-.016-225.737-19,14v227Z" transform="translate(229.874 2440.731)"/>
    <path id="Path_51" data-name="Path 51" class="cls-6" d="M270.308,1732.814l19-14v14Z" transform="translate(238.692 2436.186)"/>
    <rect id="Rectangle_74" data-name="Rectangle 74" class="cls-7" width="52" height="133.861" transform="translate(528 4021.829)"/>
    <rect id="Rectangle_75" data-name="Rectangle 75" class="cls-7" width="52" height="135.454" transform="translate(509 4033.545)"/>
    <path id="Path_52" data-name="Path 52" class="cls-8" d="M292.381,1718.789h52l-19,14-33,1Z" transform="translate(125.619 2546.211)"/>
    <g class="cls-33" transform="matrix(1, 0, 0, 1, 255.5, 3924)">
      <path id="Path_53-2" data-name="Path 53" class="cls-4" d="M270.046,1852.237v-117h52v117Z" transform="translate(-126.55 -1380.24)"/>
    </g>
    <path id="Path_54" data-name="Path 54" class="cls-5" d="M350.123,1823.243l0-115.781-19,14v117Z" transform="translate(119.874 2557.538)"/>
    <path id="Path_55" data-name="Path 55" class="cls-6" d="M270.308,1732.814l19-14v14Z" transform="translate(128.692 2546.186)"/>
    <rect id="Rectangle_76" data-name="Rectangle 76" class="cls-7" width="52" height="110" transform="translate(418 4155)"/>
    <rect id="Rectangle_77" data-name="Rectangle 77" class="cls-7" width="52" height="113" transform="translate(399 4166)"/>
    <path id="Path_56" data-name="Path 56" class="cls-9" d="M292.381,1718.789h52l-19,14-33,1Z" transform="translate(12.619 2609.211)"/>
    <g class="cls-32" transform="matrix(1, 0, 0, 1, 255.5, 3924)">
      <path id="Path_57-2" data-name="Path 57" class="cls-10" d="M270.046,1789.237v-54h52v54Z" transform="translate(-239.55 -1317.24)"/>
    </g>
    <path id="Path_58" data-name="Path 58" class="cls-11" d="M350.139,1752.744l-.013-52.782-19,14v54Z" transform="translate(6.874 2628.038)"/>
    <path id="Path_59" data-name="Path 59" class="cls-12" d="M270.308,1732.814l19-14v14Z" transform="translate(15.692 2609.186)"/>
    <rect id="Rectangle_78" data-name="Rectangle 78" class="cls-13" width="52" height="84.057" transform="translate(305 4248.601)"/>
    <rect id="Rectangle_79" data-name="Rectangle 79" class="cls-13" width="52" height="69.724" transform="translate(286 4272.276)"/>
    <line id="Line_81" data-name="Line 81" class="cls-1" x1="254" transform="translate(255.5 4174.121)"/>
    <line id="Line_85" data-name="Line 85" class="cls-1" x2="43" transform="translate(580.5 4174.5)"/>
    <line id="Line_82" data-name="Line 82" class="cls-1" x1="520.325" transform="translate(255.5 4396.5)"/>
    <g class="cls-31" transform="matrix(1, 0, 0, 1, 255.5, 3924)">
      <circle id="Ellipse_114-2" data-name="Ellipse 114" class="cls-14" cx="5.5" cy="5.5" r="5.5" transform="translate(64.5 360)"/>
    </g>
    <g class="cls-30" transform="matrix(1, 0, 0, 1, 255.5, 3924)">
      <circle id="Ellipse_116-2" data-name="Ellipse 116" class="cls-15" cx="5.5" cy="5.5" r="5.5" transform="translate(287.5 179)"/>
    </g>
    <g class="cls-29" transform="matrix(1, 0, 0, 1, 255.5, 3924)">
      <circle id="Ellipse_118-2" data-name="Ellipse 118" class="cls-15" cx="5.5" cy="5.5" r="5.5" transform="translate(177.5 291)"/>
    </g>
    <g class="cls-28" transform="matrix(1, 0, 0, 1, 255.5, 3924)">
      <circle id="Ellipse_117-2" data-name="Ellipse 117" class="cls-15" cx="5.5" cy="5.5" r="5.5" transform="translate(401.5 72)"/>
    </g>
    <circle id="Ellipse_119" data-name="Ellipse 119" class="cls-16" cx="2" cy="2" r="2" transform="translate(777 4343)"/>
    <circle id="Ellipse_215" data-name="Ellipse 215" class="cls-14" cx="1" cy="1" r="1" transform="translate(719 4421)"/>
    <circle id="Ellipse_120" data-name="Ellipse 120" class="cls-17" cx="3" cy="3" r="3" transform="translate(602 4338)"/>
    <circle id="Ellipse_126" data-name="Ellipse 126" class="cls-18" cx="5" cy="5" r="5" transform="translate(371 4322)"/>
    <circle id="Ellipse_122" data-name="Ellipse 122" class="cls-19" cx="2" cy="2" r="2" transform="translate(613 4260)"/>
    <circle id="Ellipse_121" data-name="Ellipse 121" class="cls-14" cx="0.5" cy="0.5" r="0.5" transform="translate(733 4223)"/>
    <circle id="Ellipse_123" data-name="Ellipse 123" class="cls-14" cx="0.5" cy="0.5" r="0.5" transform="translate(585 4291)"/>
    <circle id="Ellipse_124" data-name="Ellipse 124" class="cls-20" cx="0.5" cy="0.5" r="0.5" transform="translate(442 4420)"/>
    <circle id="Ellipse_125" data-name="Ellipse 125" class="cls-21" cx="2" cy="2" r="2" transform="translate(405 4406)"/>
    <circle id="Ellipse_127" data-name="Ellipse 127" class="cls-14" cx="0.5" cy="0.5" r="0.5" transform="translate(264 4289)"/>
    <circle id="Ellipse_128" data-name="Ellipse 128" class="cls-14" cx="0.5" cy="0.5" r="0.5" transform="translate(264 4421)"/>
    <circle id="Ellipse_129" data-name="Ellipse 129" class="cls-14" cx="0.5" cy="0.5" r="0.5" transform="translate(707 4330)"/>
    <circle id="Ellipse_130" data-name="Ellipse 130" class="cls-14" cx="0.5" cy="0.5" r="0.5" transform="translate(386 4316)"/>
    <circle id="Ellipse_131" data-name="Ellipse 131" class="cls-14" cx="0.5" cy="0.5" r="0.5" transform="translate(496 4243)"/>
    <circle id="Ellipse_216" data-name="Ellipse 216" class="cls-14" cx="0.5" cy="0.5" r="0.5" transform="translate(413 4212)"/>
    <circle id="Ellipse_132" data-name="Ellipse 132" class="cls-22" cx="5" cy="5" r="5" transform="translate(511 4362)"/>
    <circle id="Ellipse_133" data-name="Ellipse 133" class="cls-14" cx="2" cy="2" r="2" transform="matrix(-0.839, -0.545, 0.545, -0.839, 328.468, 4445.542)"/>
    <circle id="Ellipse_134" data-name="Ellipse 134" class="cls-17" cx="3.5" cy="3.5" r="3.5" transform="matrix(-0.839, -0.545, 0.545, -0.839, 391.858, 4270.109)"/>
    <circle id="Ellipse_142" data-name="Ellipse 142" class="cls-17" cx="3" cy="3" r="3" transform="matrix(-0.839, -0.545, 0.545, -0.839, 492.152, 4433.493)"/>
    <circle id="Ellipse_135" data-name="Ellipse 135" class="cls-14" cx="0.5" cy="0.5" r="0.5" transform="translate(752 4241)"/>
    <circle id="Ellipse_137" data-name="Ellipse 137" class="cls-23" cx="2" cy="2" r="2" transform="translate(540 4417)"/>
    <circle id="Ellipse_217" data-name="Ellipse 217" class="cls-23" cx="2" cy="2" r="2" transform="translate(591 4116)"/>
    <circle id="Ellipse_138" data-name="Ellipse 138" class="cls-14" cx="0.5" cy="0.5" r="0.5" transform="translate(578 4416)"/>
    <circle id="Ellipse_139" data-name="Ellipse 139" class="cls-24" cx="0.5" cy="0.5" r="0.5" transform="translate(597 4315)"/>
    <circle id="Ellipse_140" data-name="Ellipse 140" class="cls-25" cx="0.5" cy="0.5" r="0.5" transform="translate(523 4462)"/>
    <circle id="Ellipse_141" data-name="Ellipse 141" class="cls-14" cx="0.5" cy="0.5" r="0.5" transform="translate(652 4440)"/>
    <circle id="Ellipse_143" data-name="Ellipse 143" class="cls-26" cx="0.5" cy="0.5" r="0.5" transform="translate(746 4311)"/>
    <line id="Line_84" data-name="Line 84" class="cls-1" x2="81" transform="translate(694.5 4174.5)"/>
    <circle id="Ellipse_218" data-name="Ellipse 218" class="cls-27" cx="0.5" cy="0.5" r="0.5" transform="translate(598 4440)"/>
    <circle id="Ellipse_219" data-name="Ellipse 219" class="cls-14" cx="0.5" cy="0.5" r="0.5" transform="matrix(0.616, -0.788, 0.788, 0.616, 375.563, 4148.354)"/>
    <circle id="Ellipse_220" data-name="Ellipse 220" class="cls-14" cx="0.5" cy="0.5" r="0.5" transform="matrix(0.616, -0.788, 0.788, 0.616, 440.034, 4104.817)"/>
    <circle id="Ellipse_221" data-name="Ellipse 221" class="cls-27" cx="0.5" cy="0.5" r="0.5" transform="matrix(0.616, -0.788, 0.788, 0.616, 406.788, 4147.37)"/>
    <circle id="Ellipse_222" data-name="Ellipse 222" class="cls-14" cx="0.5" cy="0.5" r="0.5" transform="translate(344 4048)"/>
  </g>
</svg>
