<?xml version="1.0" standalone="no"?>
<!DOCTYPE svg PUBLIC "-//W3C//DTD SVG 20010904//EN"
 "http://www.w3.org/TR/2001/REC-SVG-20010904/DTD/svg10.dtd">
<svg version="1.0" xmlns="http://www.w3.org/2000/svg"
 width="536.000000pt" height="536.000000pt" viewBox="0 0 536.000000 536.000000"
 preserveAspectRatio="xMidYMid meet">
<g transform="translate(0.000000,536.000000) scale(0.100000,-0.100000)"
fill="#FFFFFF" stroke="none">
<path d="M2326 5344 c-78 -19 -148 -64 -186 -121 -16 -26 -30 -50 -30 -55 0
-4 -17 -8 -37 -8 -160 0 -253 -133 -253 -359 0 -36 7 -133 14 -216 27 -279 29
-443 11 -740 -10 -154 -18 -395 -19 -535 -1 -247 0 -256 22 -298 21 -41 22
-54 22 -270 0 -245 -11 -356 -55 -520 -57 -214 -142 -386 -276 -557 -214 -273
-339 -686 -343 -1130 -1 -200 4 -219 66 -267 154 -117 510 -199 1088 -250 223
-20 876 -16 1065 5 540 62 781 169 750 333 -22 117 -222 392 -451 619 -284
283 -514 434 -951 625 -68 30 -121 55 -120 56 2 2 39 -8 82 -21 216 -67 416
-95 675 -94 211 0 324 9 341 26 8 8 5 62 -10 200 -26 227 -41 441 -41 584 l0
105 -36 42 c-45 53 -173 139 -295 197 l-94 45 250 -5 c138 -2 278 -8 313 -11
147 -16 17 54 -163 87 -38 8 -131 14 -207 14 -75 0 -135 1 -134 3 2 1 38 9 80
17 140 27 321 15 445 -29 85 -31 96 -10 27 51 -71 62 -271 164 -655 334 -67
29 -125 59 -128 66 -3 7 8 36 24 65 43 80 92 108 266 151 80 20 179 49 219 65
40 16 74 26 76 22 5 -14 -61 -156 -104 -223 -52 -79 -55 -97 -17 -97 41 0 185
77 246 131 66 59 114 149 122 232 5 40 11 57 21 57 47 0 -33 91 -210 239 -77
65 -160 138 -183 163 -113 124 -210 295 -264 468 l-30 99 -50 10 c-72 16 -227
14 -286 -4 -77 -23 -116 -54 -132 -105 -29 -95 -28 -93 -69 -85 -20 4 -97 29
-171 56 -123 46 -194 65 -310 86 l-44 8 49 65 c137 181 340 280 574 280 116 0
128 -3 350 -96 190 -79 241 -89 260 -54 26 49 -23 161 -110 249 -76 77 -154
127 -295 187 -240 103 -533 148 -699 108z m-116 -2198 c-20 -98 -69 -147 -166
-165 -40 -8 -56 -7 -83 7 -19 9 -34 22 -33 27 1 6 35 13 77 16 95 8 144 38
180 109 14 27 25 57 26 67 0 10 3 13 6 6 2 -7 -1 -37 -7 -67z"/>
</g>
</svg>
