<?xml version="1.0" encoding="utf-8"?>
<!-- Generator: Adobe Illustrator 16.0.0, SVG Export Plug-In . SVG Version: 6.00 Build 0)  -->
<!DOCTYPE svg PUBLIC "-//W3C//DTD SVG 1.1//EN" "http://www.w3.org/Graphics/SVG/1.1/DTD/svg11.dtd">
<svg version="1.1" id="Layer_1" xmlns="http://www.w3.org/2000/svg" xmlns:xlink="http://www.w3.org/1999/xlink" x="0px" y="0px"
	 width="1150.58px" height="566.93px" viewBox="0 0 1150.58 566.93" enable-background="new 0 0 1150.58 566.93"
	 xml:space="preserve">
<text transform="matrix(1.1765 0 0 1 176.9995 340.1777)" fill="#FFFFFF" font-family="'Helvetica'" font-size="299.403" letter-spacing="-13.6">MOAI</text>
<g transform="translate(0.000000,536.000000) scale(0.100000,-0.100000)">
	<path fill="#FFFFFF" d="M515.4,4238.09c-34.468-8.394-65.415-28.286-82.212-53.481c-7.065-11.489-13.252-22.1-13.252-24.307
		c0-1.772-7.52-3.54-16.357-3.54c-70.728,0-111.831-58.784-111.831-158.677c0-15.913,3.101-58.784,6.196-95.474
		c11.924-123.315,12.812-195.806,4.854-327.08c-4.414-68.066-7.949-174.59-8.398-236.469c-0.439-109.18,0-113.154,9.722-131.719
		c9.287-18.125,9.731-23.867,9.731-119.336c0-108.301-4.868-157.363-24.307-229.844c-25.2-94.6-62.769-170.625-121.997-246.201
		C72.959,2491.299,17.71,2308.75,15.942,2112.5c-0.444-88.398,1.768-96.797,29.175-118.018
		c68.066-51.719,225.415-87.949,480.893-110.498c98.564-8.838,387.197-7.07,470.737,2.217
		c238.677,27.393,345.2,74.697,331.494,147.188c-9.717,51.709-98.125,173.262-199.336,273.594
		c-125.532,125.078-227.192,191.836-420.352,276.25c-30.049,13.262-53.477,24.307-53.037,24.756
		c0.884,0.889,17.241-3.535,36.24-9.287c95.474-29.609,183.877-41.982,298.354-41.543c93.257,0,143.213,3.975,150.723,11.494
		c3.54,3.535,2.212,27.402-4.419,88.398c-11.489,100.332-18.12,194.912-18.12,258.125v46.406l-15.913,18.564
		c-19.883,23.428-76.465,61.445-130.391,87.08l-41.548,19.902l110.498-2.227c60.996-0.879,122.876-3.535,138.35-4.863
		c64.971-7.07,7.51,23.867-72.046,38.477c-16.797,3.516-57.9,6.172-91.499,6.172c-33.145,0-59.663,0.449-59.224,1.328
		c0.879,0.449,16.797,3.984,35.356,7.52c61.89,11.934,141.885,6.621,196.694-12.812c37.568-13.711,42.427-4.434,11.934,22.539
		c-31.387,27.402-119.78,72.48-289.512,147.622c-29.614,12.817-55.249,26.079-56.582,29.17c-1.323,3.096,3.545,15.908,10.61,28.735
		c19.009,35.356,40.664,47.729,117.578,66.738c35.356,8.843,79.116,21.66,96.792,28.73c17.681,7.07,32.705,11.489,33.599,9.722
		c2.202-6.187-26.963-68.955-45.972-98.564c-22.983-34.917-24.307-42.871-7.515-42.871c18.125,0,81.777,34.033,108.735,57.9
		c29.17,26.074,50.386,65.859,53.926,102.544c2.207,17.676,4.854,25.195,9.268,25.195c20.781,0-14.57,40.225-92.812,105.64
		c-34.028,28.726-70.718,60.996-80.879,72.046c-49.946,54.805-92.822,130.391-116.689,206.855l-13.262,43.755l-22.104,4.419
		c-31.821,7.075-100.327,6.191-126.416-1.763c-34.028-10.166-51.265-23.867-58.34-46.411
		c-12.817-41.992-12.378-41.108-30.498-37.573c-8.838,1.768-42.876,12.822-75.581,24.751
		c-54.365,20.337-85.752,28.735-137.026,38.018l-19.438,3.535l21.65,28.73c60.557,80,150.283,123.76,253.716,123.76
		c51.265,0,56.572-1.328,154.697-42.432c83.979-34.917,106.523-39.341,114.922-23.867c11.494,21.655-10.161,71.162-48.623,110.054
		c-33.584,34.038-68.062,56.138-130.391,82.656C718.286,4235.883,588.779,4255.776,515.4,4238.09z M464.131,3266.572
		c-8.838-43.315-30.498-64.976-73.369-72.925c-17.676-3.53-24.756-3.105-36.689,3.086c-8.398,3.984-15.024,9.727-14.585,11.938
		c0.444,2.651,15.469,5.747,34.038,7.07c41.987,3.535,63.647,16.797,79.556,48.179c6.187,11.938,11.05,25.195,11.494,29.619
		c0,4.419,1.328,5.742,2.651,2.646C468.105,3293.091,466.787,3279.834,464.131,3266.572z"/>
</g>
</svg>
