<?xml version="1.0" standalone="no"?>
<!DOCTYPE svg PUBLIC "-//W3C//DTD SVG 20010904//EN"
 "http://www.w3.org/TR/2001/REC-SVG-20010904/DTD/svg10.dtd">
<svg version="1.0" xmlns="http://www.w3.org/2000/svg"
 width="600.000000pt" height="600.000000pt" viewBox="0 0 600.000000 600.000000"
 preserveAspectRatio="xMidYMid meet">
<metadata>
Created by potrace 1.16, written by Peter Selinger 2001-2019
</metadata>
<g transform="translate(0.000000,600.000000) scale(0.100000,-0.100000)"
fill="#000000" stroke="none">
<path d="M2528 5687 c-4 -27 -22 -32 -41 -12 -9 8 -20 15 -25 15 -20 0 -152
-47 -147 -52 3 -3 -9 -8 -27 -12 -18 -3 -66 -25 -107 -49 -58 -33 -76 -49 -83
-72 -22 -76 -50 -173 -58 -200 -16 -54 -83 -439 -96 -555 -3 -25 -14 -110 -24
-190 -45 -339 -55 -526 -55 -990 0 -406 19 -1097 30 -1127 8 -22 -40 -15 -142
22 -152 54 -285 154 -300 223 -13 59 -5 432 8 432 4 0 12 44 18 98 7 53 16
120 21 147 6 28 12 75 15 105 2 30 14 111 25 180 11 69 18 131 15 138 -3 7 -1
21 4 30 8 16 21 92 36 207 l5 40 -12 -32 c-6 -18 -14 -33 -18 -33 -9 0 -9 33
0 45 4 6 11 29 15 52 9 57 24 65 19 11 -4 -42 -4 -42 6 -11 12 38 81 360 83
386 1 9 4 17 8 17 4 0 9 15 12 33 3 17 18 75 33 127 14 52 27 109 28 127 0 17
3 29 5 27 9 -9 30 72 25 96 -4 17 -3 21 4 12 7 -10 11 -5 16 18 9 48 7 58 -8
31 -8 -15 -16 -20 -20 -12 -4 6 -3 11 2 11 5 0 13 15 17 33 5 24 8 28 13 15 5
-12 12 1 24 40 71 240 88 305 84 310 -4 3 -7 3 -9 1 -9 -15 -40 -110 -44 -136
-3 -20 -9 -30 -16 -26 -6 4 -8 -1 -5 -13 3 -11 -1 -25 -9 -32 -7 -7 -13 -25
-13 -40 0 -42 -11 -72 -26 -72 -8 0 -14 -9 -14 -20 0 -11 -7 -36 -14 -55 -8
-19 -11 -35 -5 -35 5 0 9 -5 9 -11 0 -5 -4 -8 -9 -4 -10 6 -17 -11 -26 -65 -3
-19 -10 -37 -14 -40 -9 -6 -42 -117 -45 -150 -1 -14 -10 -41 -20 -59 -10 -19
-20 -56 -21 -81 -1 -25 -9 -61 -17 -80 -9 -19 -17 -43 -17 -52 -2 -38 -5 -48
-13 -48 -4 0 -8 -13 -8 -29 0 -16 -7 -44 -14 -63 -8 -19 -12 -45 -9 -56 3 -13
1 -22 -5 -22 -6 0 -14 -17 -18 -37 -4 -21 -9 -42 -13 -48 -3 -5 -6 -21 -7 -35
0 -14 -6 -45 -13 -69 -7 -24 -17 -67 -22 -95 -5 -28 -22 -120 -37 -203 -19
-101 -25 -154 -18 -156 6 -2 4 -11 -7 -21 -21 -21 -22 -52 -2 -59 11 -5 13 1
10 26 l-5 32 12 -34 c8 -24 9 -36 1 -38 -27 -9 -43 -31 -47 -63 -16 -117 -28
-189 -36 -215 -5 -16 -12 -46 -15 -65 -7 -50 -24 -130 -29 -138 -11 -18 -36
-199 -36 -258 0 -102 29 -185 65 -190 6 0 16 -2 23 -2 6 -1 12 -7 12 -13 0 -6
-8 -8 -17 -5 -10 3 -2 -8 17 -25 48 -42 161 -98 250 -124 l75 -22 6 -279 c3
-153 9 -414 13 -579 15 -715 26 -1180 32 -1312 l6 -143 539 0 c388 0 539 3
539 11 0 7 14 10 36 7 39 -5 60 16 44 43 -8 11 -13 12 -27 1 -48 -34 -67 -21
-59 40 3 25 0 38 -10 42 -19 7 -18 30 1 46 9 7 14 19 11 27 -3 8 1 13 11 13
13 0 14 3 5 12 -9 9 -15 8 -27 -8 -15 -19 -15 -19 -35 5 -26 30 -25 45 4 68
18 15 21 23 15 41 -5 13 -17 22 -29 22 -14 0 -20 7 -20 24 0 13 -7 29 -15 36
-25 20 -19 59 10 66 28 7 31 18 13 38 -10 10 -17 11 -31 2 -23 -14 -38 7 -35
50 1 17 -5 43 -15 57 -9 15 -17 33 -17 40 0 8 -9 21 -21 28 -18 12 -18 16 -6
33 19 26 51 14 42 -15 -5 -15 -4 -19 4 -15 6 4 11 14 11 22 0 8 5 14 11 14 6
0 9 -7 5 -15 -6 -16 9 -21 18 -7 12 19 -7 50 -34 55 -16 4 -30 14 -33 26 -6
26 20 27 113 5 35 -8 159 -31 275 -51 186 -31 237 -36 440 -40 181 -4 259 -2
362 11 154 20 181 31 633 255 279 139 284 142 225 136 -33 -3 -98 -13 -145
-22 -47 -8 -121 -19 -165 -23 -44 -4 -241 -26 -438 -49 -197 -22 -433 -46
-525 -52 -170 -11 -446 -7 -656 12 -153 13 -173 17 -171 37 2 27 16 44 31 38
15 -6 18 2 6 21 -4 7 -21 11 -37 10 -24 -2 -31 3 -39 26 -7 20 -7 33 2 47 8
13 9 20 1 20 -5 0 -8 4 -4 10 3 5 -4 19 -15 30 -20 20 -20 21 -3 44 16 21 19
22 25 8 6 -14 7 -13 5 3 -2 15 -9 19 -28 17 -26 -3 -59 19 -59 39 0 6 16 9 35
7 41 -3 59 15 43 45 -9 18 -10 18 -32 -2 -12 -12 -28 -21 -34 -21 -15 0 -26
43 -18 74 4 16 1 26 -9 30 -19 7 -19 30 0 46 9 7 14 19 11 27 -3 8 1 13 11 13
13 0 14 3 5 12 -9 9 -15 8 -27 -8 -15 -19 -15 -19 -35 5 -26 30 -25 45 4 68
18 15 21 23 15 41 -5 13 -17 22 -29 22 -14 0 -20 7 -20 24 0 13 -7 29 -15 36
-25 20 -19 59 10 66 28 7 31 18 13 38 -10 10 -17 11 -31 2 -23 -14 -38 7 -35
50 1 17 -5 43 -15 57 -9 15 -17 33 -17 40 0 8 -9 21 -21 28 -18 12 -18 16 -6
33 19 26 51 14 42 -15 -5 -15 -4 -19 4 -15 6 4 11 14 11 22 0 8 5 14 11 14 6
0 9 -7 5 -15 -6 -16 9 -21 18 -7 7 12 -15 82 -26 82 -4 0 -8 -4 -8 -10 0 -5
-6 -10 -14 -10 -20 0 -32 40 -15 51 9 5 6 11 -14 20 -29 13 -36 46 -15 67 9 9
8 12 -4 12 -20 0 -30 25 -22 57 6 21 11 24 36 21 22 -4 28 -1 23 9 -3 8 -5 16
-5 17 0 1 -13 1 -30 -2 -49 -7 -38 33 14 52 14 5 17 2 12 -9 -3 -8 -1 -15 5
-15 5 0 8 12 5 28 -2 15 -5 30 -5 34 -1 4 -9 4 -18 1 -15 -6 -15 -7 3 -14 14
-6 9 -8 -18 -8 -39 -1 -43 5 -52 62 -1 10 -8 23 -14 29 -16 16 -15 48 2 48 21
0 43 -30 27 -39 -7 -5 1 -8 19 -8 24 0 30 5 30 22 0 28 -10 38 -25 25 -8 -6
-18 -5 -30 3 -14 11 -15 17 -6 35 7 13 17 19 26 16 11 -4 15 1 15 17 0 17 -3
20 -9 11 -13 -21 -46 -10 -49 16 -4 28 14 53 33 46 7 -3 19 4 25 15 9 17 8 22
-5 27 -8 3 -22 3 -30 0 -10 -4 -19 3 -27 19 -9 19 -8 29 5 49 14 21 14 25 1
30 -22 8 -37 55 -23 72 9 11 7 14 -9 14 -12 0 -24 5 -28 12 -10 15 27 41 40
28 6 -6 14 -6 23 1 10 9 13 8 13 -4 0 -8 -6 -18 -12 -20 -8 -4 -7 -6 3 -6 19
-1 36 32 20 37 -5 2 -8 9 -5 17 3 7 1 16 -5 20 -7 3 -11 -2 -11 -14 0 -12 -5
-21 -11 -21 -6 0 -9 7 -5 15 3 8 1 15 -4 15 -6 0 -10 11 -10 25 0 18 5 25 20
25 11 0 20 5 20 10 0 6 -9 10 -20 10 -21 0 -45 34 -35 50 3 6 17 10 31 10 17
0 24 5 24 20 0 21 -15 27 -25 10 -12 -19 -44 -11 -50 13 -9 33 2 99 17 108 18
12 28 11 28 -1 0 -5 4 -10 10 -10 19 0 -3 29 -30 38 -21 8 -29 19 -35 49 -4
21 -10 40 -15 43 -4 3 -10 14 -12 25 -2 14 3 20 17 20 14 0 20 -6 19 -21 0
-16 5 -20 23 -16 16 3 23 11 23 28 0 12 -4 26 -10 29 -5 3 -10 1 -10 -4 0 -6
-4 -11 -10 -11 -15 0 -24 50 -12 62 8 8 8 17 1 30 -14 26 6 61 31 53 23 -7 33
8 25 36 -6 17 -13 20 -36 17 -25 -4 -30 -1 -36 20 -3 14 -1 34 6 44 9 15 8 23
-4 41 -19 27 -19 56 0 81 21 27 19 39 -4 26 -27 -14 -31 -13 -31 10 0 11 7 23
15 26 15 6 45 -17 45 -35 0 -14 17 -14 25 -1 10 16 -5 49 -20 44 -18 -7 -31
36 -14 47 11 6 11 11 1 21 -6 6 -12 25 -12 41 0 25 3 28 27 25 21 -2 29 2 31
17 4 17 2 18 -13 5 -15 -13 -19 -12 -32 5 -8 12 -12 30 -8 45 3 14 6 35 6 47
-1 23 20 36 45 26 13 -5 15 0 12 28 l-3 34 170 3 c170 3 351 -9 435 -30 25 -6
74 -23 110 -37 l65 -26 6 -130 c9 -171 37 -542 49 -630 5 -38 19 -152 31 -252
18 -149 26 -183 38 -184 12 0 11 -2 -3 -8 -17 -6 -11 -12 35 -37 172 -92 373
-159 519 -171 63 -5 69 -4 160 42 76 38 287 178 310 205 3 3 21 17 40 30 81
57 100 77 100 105 0 21 -6 24 -57 32 -90 13 -463 10 -500 -4 -25 -9 -34 -9
-42 1 -12 14 4 36 26 36 7 0 13 7 13 15 0 20 -16 19 -24 -1 -7 -18 -26 -10
-26 12 0 8 9 14 19 14 11 0 22 6 24 13 4 10 6 10 6 0 1 -15 21 -18 21 -4 0 15
-33 22 -41 9 -6 -9 -20 -1 -49 29 -37 37 -40 42 -26 56 18 18 20 27 6 27 -6 0
-15 -11 -20 -25 -12 -32 -42 -34 -39 -2 4 40 -1 57 -15 57 -8 0 -23 11 -34 25
-11 14 -24 25 -29 24 -24 -4 -43 3 -43 16 0 17 45 21 55 5 13 -21 24 1 13 25
-12 27 -24 32 -31 13 -3 -10 -9 -8 -23 4 -16 16 -16 18 -1 24 27 10 20 24 -13
24 -22 0 -28 4 -23 16 4 10 -2 17 -16 21 -28 7 -27 60 2 55 9 -2 17 1 17 5 0
18 -16 31 -34 30 -27 -3 -33 23 -7 30 24 6 25 8 11 34 -11 20 -50 27 -50 9 0
-14 -27 -13 -36 2 -4 6 -2 14 4 16 7 2 12 13 12 25 0 30 15 51 30 42 8 -5 11
1 8 21 -2 24 -7 28 -25 26 -25 -3 -26 0 -24 65 1 36 -2 40 -19 36 -20 -5 -28
15 -13 31 10 10 12 96 2 102 -5 3 -9 12 -9 21 0 9 -7 21 -16 27 -9 7 -12 18
-9 28 8 20 35 12 35 -9 0 -13 3 -13 15 -3 17 14 21 35 5 25 -5 -3 -7 0 -4 8 3
9 -3 17 -16 20 -25 6 -22 33 4 31 9 -1 16 2 16 7 0 5 -8 9 -19 9 -10 0 -24 7
-32 16 -10 13 -10 17 1 24 11 7 11 12 2 23 -14 17 -12 89 3 99 17 13 66 9 145
-13 l76 -20 12 -132 c7 -73 17 -153 23 -178 11 -51 4 -47 170 -112 l86 -34 66
169 c37 93 67 178 67 189 0 75 -317 214 -716 313 -215 54 -311 67 -531 73
-178 5 -203 8 -203 22 0 14 2 14 10 1 8 -12 10 -10 10 8 0 30 -22 24 -30 -8
-7 -29 -23 -35 -40 -15 -16 20 -5 49 16 41 13 -5 15 -1 11 21 -6 32 8 63 28
63 8 0 19 9 25 20 7 13 7 20 1 20 -6 0 -8 7 -4 16 5 13 2 15 -14 10 -27 -9
-39 29 -15 44 16 9 16 11 0 20 -18 11 -25 69 -11 84 4 4 6 24 4 45 -2 39 18
69 39 56 5 -3 10 1 10 9 0 9 -9 16 -20 16 -38 0 -42 93 -3 98 12 2 24 10 27
18 7 19 -11 57 -24 49 -4 -3 -8 25 -7 62 2 60 4 68 21 65 11 -2 15 1 11 7 -3
6 1 11 10 11 9 0 13 5 10 10 -4 7 -13 7 -24 0 -12 -6 -22 -5 -29 2 -13 13 -16
61 -5 72 4 4 8 15 8 24 0 9 12 23 28 30 15 7 27 21 27 31 0 24 -28 22 -32 -2z"/>
<path d="M3610 2593 c-14 -1 -65 -8 -115 -14 -161 -20 -348 -78 -484 -151 -69
-36 -241 -146 -241 -153 0 -6 125 38 139 49 7 6 29 16 48 22 30 11 34 10 29
-3 -5 -11 -2 -13 11 -8 40 17 59 16 77 -4 24 -26 36 -27 36 -2 0 31 40 38 60
11 l17 -23 23 23 c22 22 24 22 37 5 17 -25 17 -36 -2 -29 -8 4 -15 1 -15 -5 0
-12 11 -14 34 -5 9 3 14 9 11 14 -9 15 39 28 65 17 14 -5 35 -9 48 -8 18 2 22
-3 22 -23 0 -16 -6 -26 -14 -26 -8 0 -18 -5 -21 -11 -5 -7 3 -9 21 -7 24 2 28
7 26 26 -3 19 1 22 27 22 16 0 32 -4 35 -9 8 -12 56 -20 56 -10 0 19 30 8 46
-16 19 -29 51 -33 69 -8 7 9 17 13 23 9 17 -10 15 -36 -3 -36 -8 0 -15 -4 -15
-9 0 -5 11 -8 25 -8 14 0 28 3 31 8 3 5 0 9 -5 9 -6 0 -11 9 -11 21 0 17 5 20
38 17 31 -3 37 -7 36 -25 0 -13 5 -23 12 -23 8 0 11 6 7 16 -7 19 13 34 45 34
15 0 22 -6 22 -20 0 -11 5 -20 10 -20 6 0 10 6 10 14 0 8 13 19 30 24 24 9 31
8 38 -5 8 -13 10 -12 15 7 4 15 2 20 -8 16 -7 -2 -21 2 -32 9 -21 16 -10 32
27 37 20 2 26 -2 28 -22 4 -29 28 -51 48 -43 11 4 11 8 -2 20 -8 8 -13 20 -11
27 6 17 42 13 41 -4 -1 -12 10 -15 45 -15 41 1 49 5 69 35 12 19 20 40 18 47
-3 7 -1 23 4 35 5 13 9 17 9 11 1 -18 21 -16 21 1 0 7 -10 16 -22 19 -12 4
-19 9 -16 13 13 12 60 -6 54 -21 -3 -8 -2 -15 3 -15 5 0 11 11 13 25 5 22 2
25 -28 26 -54 2 -57 3 -62 18 -3 9 0 11 8 6 13 -8 34 -11 83 -14 16 0 26 -5
22 -10 -10 -17 15 -23 30 -7 14 14 14 19 -5 56 -23 44 -25 45 -155 59 -85 8
-481 12 -535 4z"/>
</g>
</svg>
