<svg xmlns="http://www.w3.org/2000/svg" viewBox="0 0 18.881 18.884">
  <defs>
    <style>
      .cls-1 {
        fill: #fff;
      }
    </style>
  </defs>
  <path id="bitcoin" class="cls-1" d="M18.6,11.727A9.437,9.437,0,1,1,11.724.282,9.436,9.436,0,0,1,18.6,11.727Zm-5-3.63c.189-1.251-.766-1.928-2.077-2.384l.425-1.694-1.035-.26L10.5,5.417c-.271-.068-.555-.131-.837-.2l.414-1.674-1.039-.26-.425,1.7c-.224-.053-.445-.1-.661-.157L6.527,4.479,6.252,5.586s.767.177.751.186a.553.553,0,0,1,.484.6L6.325,11.033a.388.388,0,0,1-.483.247c.012.016-.755-.189-.755-.189l-.519,1.188,1.345.335.732.19-.425,1.723,1.039.257.425-1.707c.283.079.555.149.826.215l-.4,1.695,1.039.26.429-1.723c1.763.336,3.092.2,3.651-1.4a1.82,1.82,0,0,0-.958-2.515,1.654,1.654,0,0,0,1.322-1.519H13.6Zm-2.368,3.32c-.318,1.29-2.484.59-3.187.417l.567-2.282c.705.181,2.956.527,2.62,1.865Zm.323-3.336c-.291,1.172-2.095.578-2.679.433l.515-2.077c.585.142,2.468.412,2.164,1.64v0Z" transform="translate(-0.002 0)"/>
</svg>
