<svg xmlns="http://www.w3.org/2000/svg" viewBox="0 0 18.884 18.884">
  <defs>
    <style>
      .cls-1 {
        fill: #fff;
      }
    </style>
  </defs>
  <path id="facebook" class="cls-1" d="M17.842,0H1.042A1.042,1.042,0,0,0,0,1.042v16.8a1.041,1.041,0,0,0,1.042,1.042h9.044V11.571H7.624V8.722h2.462v-2.1a3.433,3.433,0,0,1,3.666-3.765,20.357,20.357,0,0,1,2.2.111V5.513H14.44c-1.18,0-1.41.567-1.41,1.393V8.724h2.82l-.366,2.856H13.03v7.3h4.811a1.041,1.041,0,0,0,1.043-1.042V1.042A1.041,1.041,0,0,0,17.842,0"/>
</svg>
