<?xml version="1.0" encoding="utf-8"?>
<!-- Generator: Adobe Illustrator 16.0.0, SVG Export Plug-In . SVG Version: 6.00 Build 0)  -->
<!DOCTYPE svg PUBLIC "-//W3C//DTD SVG 1.1//EN" "http://www.w3.org/Graphics/SVG/1.1/DTD/svg11.dtd">
<svg version="1.1" id="Layer_1" xmlns="http://www.w3.org/2000/svg" xmlns:xlink="http://www.w3.org/1999/xlink" x="0px" y="0px"
	 width="581.405px" height="566.945px" viewBox="284.567 0.092 581.405 566.945"
	 enable-background="new 284.567 0.092 581.405 566.945" xml:space="preserve">
<path id="github_1_" fill="#808080" d="M575.29,0.092c-160.532-0.03-290.693,130.082-290.723,290.615
	c-0.024,125.151,80.063,236.268,198.8,275.823c14.53,2.739,19.856-6.157,19.856-13.977c0-6.896-0.247-25.182-0.37-49.409
	c-80.84,17.547-97.895-39.004-97.895-39.004c-5.354-17.575-16.82-32.655-32.324-42.514c-26.321-18.01,2.032-17.671,2.032-17.671
	c18.671,2.565,35.105,13.624,44.515,29.953c16.467,29.983,54.124,40.94,84.107,24.473c0.184-0.101,0.367-0.203,0.551-0.307
	c1.313-14.751,7.865-28.544,18.471-38.881c-64.647-7.265-132.374-32.262-132.374-143.641c-0.486-28.895,10.2-56.862,29.831-78.07
	c-9.095-25.025-8.179-52.595,2.555-76.961c0,0,24.351-7.789,80.04,29.799c47.562-13.083,97.772-13.083,145.334,0
	c55.228-37.588,79.578-29.799,79.578-29.799c10.561,24.388,11.593,51.849,2.895,76.961c19.563,21.223,30.23,49.147,29.799,78.008
	c0,111.656-67.941,136.253-132.62,143.395c13.947,14.285,21.089,33.871,19.61,53.781c0,38.911-0.37,70.158-0.37,79.608
	c0,7.635,5.08,16.716,19.979,13.792c152.252-50.243,234.947-214.397,184.704-366.649C811.978,80.348,700.677-0.039,575.29,0.092"/>
</svg>
