<svg xmlns="http://www.w3.org/2000/svg" viewBox="0 0 18.884 18.416">
  <defs>
    <style>
      .cls-1 {
        fill: #fff;
      }
    </style>
  </defs>
  <path id="github_1_" data-name="github (1)" class="cls-1" d="M9.442.3A9.442,9.442,0,0,0,6.456,18.7c.472.089.645-.2.645-.454,0-.224-.008-.818-.012-1.605-2.626.57-3.18-1.267-3.18-1.267a2.5,2.5,0,0,0-1.05-1.381c-.855-.585.066-.574.066-.574a1.98,1.98,0,0,1,1.446.973,2.012,2.012,0,0,0,2.75.785,2.013,2.013,0,0,1,.6-1.263c-2.1-.236-4.3-1.048-4.3-4.666A3.643,3.643,0,0,1,4.39,6.712a3.357,3.357,0,0,1,.083-2.5s.791-.253,2.6.968a8.9,8.9,0,0,1,4.721,0c1.794-1.221,2.585-.968,2.585-.968a3.45,3.45,0,0,1,.094,2.5,3.658,3.658,0,0,1,.968,2.534c0,3.627-2.207,4.426-4.308,4.658a2.261,2.261,0,0,1,.637,1.747c0,1.264-.012,2.279-.012,2.586,0,.248.165.543.649.448A9.43,9.43,0,0,0,9.442.3" transform="translate(0 -0.297)"/>
</svg>
