<svg xmlns="http://www.w3.org/2000/svg" viewBox="0 0 18.884 12.013">
  <defs>
    <style>
      .cls-1 {
        fill: #fff;
      }
    </style>
  </defs>
  <path id="googleplus" class="cls-1" d="M6.007,9.514v2.061H9.418a3.244,3.244,0,0,1-3.408,2.593,3.8,3.8,0,0,1,0-7.589,3.382,3.382,0,0,1,2.4.927l1.631-1.569a5.754,5.754,0,0,0-4.025-1.57,6.007,6.007,0,1,0,0,12.013,5.542,5.542,0,0,0,5.769-5.871,5.477,5.477,0,0,0-.094-1H6.007Zm12.877,0H17.166V7.8H15.449V9.514H13.732v1.716H15.45v1.718h1.722V11.231h1.711" transform="translate(0 -4.367)"/>
</svg>
