<svg xmlns="http://www.w3.org/2000/svg" viewBox="0 0 18.884 18.884">
  <defs>
    <style>
      .cls-1 {
        fill: #fff;
      }
    </style>
  </defs>
  <path id="instagram" class="cls-1" d="M9.442,0C6.877,0,6.557.012,5.55.057A6.962,6.962,0,0,0,3.257.5,4.624,4.624,0,0,0,1.585,1.585,4.607,4.607,0,0,0,.5,3.257,6.942,6.942,0,0,0,.057,5.55C.009,6.557,0,6.877,0,9.442s.012,2.885.057,3.892A6.967,6.967,0,0,0,.5,15.627,4.63,4.63,0,0,0,1.585,17.3a4.617,4.617,0,0,0,1.673,1.089,6.971,6.971,0,0,0,2.292.439c1.007.047,1.327.057,3.892.057s2.885-.012,3.892-.057a6.987,6.987,0,0,0,2.292-.439,4.825,4.825,0,0,0,2.762-2.762,6.967,6.967,0,0,0,.439-2.292c.047-1.007.057-1.327.057-3.892s-.012-2.885-.057-3.892a6.983,6.983,0,0,0-.439-2.292A4.634,4.634,0,0,0,17.3,1.585,4.6,4.6,0,0,0,15.627.5,6.946,6.946,0,0,0,13.334.057C12.327.009,12.007,0,9.442,0Zm0,1.7c2.52,0,2.821.013,3.816.056a5.2,5.2,0,0,1,1.752.327A3.107,3.107,0,0,1,16.8,3.874a5.213,5.213,0,0,1,.325,1.752c.045,1,.055,1.3.055,3.816s-.012,2.821-.058,3.816a5.314,5.314,0,0,1-.331,1.752,3,3,0,0,1-.707,1.087A2.946,2.946,0,0,1,15,16.8a5.251,5.251,0,0,1-1.759.325c-1,.045-1.3.055-3.823.055S6.6,17.171,5.6,17.125a5.354,5.354,0,0,1-1.759-.331,2.924,2.924,0,0,1-1.085-.707A2.867,2.867,0,0,1,2.043,15a5.359,5.359,0,0,1-.33-1.759c-.035-.991-.048-1.3-.048-3.811s.013-2.822.048-3.825a5.352,5.352,0,0,1,.33-1.758,2.8,2.8,0,0,1,.708-1.087,2.793,2.793,0,0,1,1.085-.707,5.226,5.226,0,0,1,1.748-.331c1-.035,1.3-.047,3.823-.047l.035.024Zm0,2.894A4.848,4.848,0,1,0,14.29,9.442,4.848,4.848,0,0,0,9.442,4.594Zm0,8a3.147,3.147,0,1,1,3.147-3.147A3.146,3.146,0,0,1,9.442,12.589ZM15.615,4.4A1.133,1.133,0,1,1,14.482,3.27,1.134,1.134,0,0,1,15.615,4.4Z"/>
</svg>
