<svg xmlns="http://www.w3.org/2000/svg" viewBox="0 0 18.884 18.884">
  <defs>
    <style>
      .cls-1 {
        fill: #fff;
      }
    </style>
  </defs>
  <path id="linkedin" class="cls-1" d="M16.088,16.092h-2.8V11.71c0-1.045-.021-2.39-1.457-2.39-1.458,0-1.681,1.137-1.681,2.313v4.459h-2.8V7.082h2.686V8.31h.036a2.947,2.947,0,0,1,2.652-1.456c2.833,0,3.357,1.865,3.357,4.292v4.946ZM4.2,5.849A1.624,1.624,0,1,1,5.823,4.224,1.622,1.622,0,0,1,4.2,5.849ZM5.6,16.092H2.8V7.082H5.6ZM17.487,0H1.393A1.377,1.377,0,0,0,0,1.36V17.524a1.376,1.376,0,0,0,1.393,1.36H17.485a1.382,1.382,0,0,0,1.4-1.36V1.36A1.382,1.382,0,0,0,17.485,0Z"/>
</svg>
