<svg xmlns="http://www.w3.org/2000/svg" viewBox="0 0 18.884 14.993">
  <defs>
    <style>
      .cls-1 {
        fill: #fff;
      }
    </style>
  </defs>
  <path id="medium" class="cls-1" d="M2.239,5.531A.731.731,0,0,0,2,4.915L.238,2.79V2.473H5.712l4.232,9.281,3.72-9.281h5.22V2.79L17.376,4.236a.442.442,0,0,0-.168.423V15.281a.442.442,0,0,0,.168.423l1.471,1.445v.317h-7.4v-.317l1.524-1.481c.149-.149.149-.194.149-.423V6.66L8.875,17.43H8.3L3.366,6.66v7.218a1,1,0,0,0,.273.829l1.983,2.408v.316H0v-.317l1.983-2.408a.961.961,0,0,0,.257-.828Z" transform="translate(0 -2.473)"/>
</svg>
