<svg xmlns="http://www.w3.org/2000/svg" viewBox="0 0 18.885 15.801">
  <defs>
    <style>
      .cls-1 {
        fill: #fff;
      }
    </style>
  </defs>
  <path id="reddit" class="cls-1" d="M1.734,11.472a3.138,3.138,0,0,0-.072.666c0,2.709,3.464,4.917,7.722,4.917s7.72-2.206,7.72-4.917a3.229,3.229,0,0,0-.065-.637l-.012-.025a.359.359,0,0,1-.023-.13A4.505,4.505,0,0,0,15.2,8.905a.332.332,0,0,1-.1-.055.536.536,0,0,1-.053-.05A10.129,10.129,0,0,0,9.385,7.22,10.175,10.175,0,0,0,3.763,8.771a.223.223,0,0,1-.039.039.312.312,0,0,1-.1.059A4.535,4.535,0,0,0,1.77,11.326a.357.357,0,0,1-.029.135l-.006.012Zm7.69,4.281a4.124,4.124,0,0,1-3.04-.942.354.354,0,0,1,0-.5.369.369,0,0,1,.5,0,3.5,3.5,0,0,0,2.54.742,3.48,3.48,0,0,0,2.533-.731.365.365,0,0,1,.495,0,.379.379,0,0,1,0,.508,4.122,4.122,0,0,1-3.039.943ZM6.587,9.795a1.333,1.333,0,0,0-1.32,1.32,1.316,1.316,0,0,0,1.32,1.3,1.3,1.3,0,0,0,1.3-1.3A1.317,1.317,0,0,0,6.587,9.795Zm5.691,0a1.334,1.334,0,0,0-1.32,1.32,1.317,1.317,0,0,0,1.32,1.3,1.3,1.3,0,0,0,1.3-1.3,1.316,1.316,0,0,0-1.3-1.32ZM15.856,8.54a5.284,5.284,0,0,1,1.722,2.285,1.411,1.411,0,0,0,.566-1.14,1.43,1.43,0,0,0-2.288-1.143v0ZM2.133,8.257A1.431,1.431,0,0,0,1.21,10.78,5.3,5.3,0,0,1,2.951,8.517a1.433,1.433,0,0,0-.818-.259v0Zm7.252,9.5c-4.647,0-8.426-2.522-8.426-5.62a3.791,3.791,0,0,1,.054-.637A2.139,2.139,0,1,1,3.558,8.086a10.84,10.84,0,0,1,5.6-1.567L10.58,2.172l.318.075s.013,0,.013,0l3.323.781a1.778,1.778,0,1,1-.13.691L11.073,3,9.919,6.526A10.755,10.755,0,0,1,15.3,8.116a2.1,2.1,0,0,1,1.442-.566A2.135,2.135,0,0,1,17.8,11.544a5.125,5.125,0,0,1,.046.589c-.012,3.1-3.782,5.62-8.435,5.62l-.027.007Zm6.436-15.1a.756.756,0,1,1-.013.009Z" transform="translate(0 -1.96)"/>
</svg>
