<svg id="slack" xmlns="http://www.w3.org/2000/svg" viewBox="0 0 18.885 18.885">
  <defs>
    <style>
      .cls-1 {
        fill: #fff;
      }
    </style>
  </defs>
  <path id="Path_35" data-name="Path 35" class="cls-1" d="M9.879,10.768l.814,2.427,2.522-.845L12.4,9.932l-2.522.85v-.013Z" transform="translate(-2.106 -2.117)"/>
  <path id="Path_36" data-name="Path 36" class="cls-1" d="M14.811,11.059l-1.224.41.425,1.267a.98.98,0,0,1-.618,1.238,1.052,1.052,0,0,1-.342.05.992.992,0,0,1-.909-.668l-.425-1.264-2.526.844L9.617,14.2a.982.982,0,0,1-.625,1.239,1.012,1.012,0,0,1-.342.05,1,1,0,0,1-.91-.669l-.424-1.274-1.228.412a1.142,1.142,0,0,1-.342.048,1,1,0,0,1-.909-.673A.972.972,0,0,1,5.45,12.1l1.227-.413L5.9,9.253l-1.22.413a1,1,0,0,1-.337.05.977.977,0,0,1-.271-1.906L5.3,7.4,4.875,6.139A.983.983,0,0,1,6.74,5.516l.424,1.265,2.514-.845L9.253,4.673a.98.98,0,1,1,1.86-.616l.425,1.275,1.224-.4a.977.977,0,1,1,.622,1.852L12.159,7.2l.814,2.428,1.22-.406a.983.983,0,0,1,.626,1.864l-.009-.023Zm3.282-4.214c-1.947-6.486-4.76-8-11.249-6.054s-8,4.757-6.054,11.249,4.757,8,11.249,6.054,8-4.757,6.054-11.249Z" transform="translate(0 0)"/>
</svg>
