<svg xmlns="http://www.w3.org/2000/svg" viewBox="0 0 18.885 15.349">
  <defs>
    <style>
      .cls-1 {
        fill: #fff;
      }
    </style>
  </defs>
  <path id="twitter" class="cls-1" d="M18.848,4.074a7.869,7.869,0,0,1-2.223.61,3.9,3.9,0,0,0,1.7-2.143,8,8,0,0,1-2.46.932,3.87,3.87,0,0,0-6.7,2.642A3.962,3.962,0,0,0,9.27,7,10.964,10.964,0,0,1,1.29,2.966,3.794,3.794,0,0,0,.766,4.913,3.872,3.872,0,0,0,2.488,8.136,3.859,3.859,0,0,1,.735,7.652V7.7a3.874,3.874,0,0,0,3.1,3.8,3.907,3.907,0,0,1-1.74.067,3.884,3.884,0,0,0,3.623,2.689,7.764,7.764,0,0,1-4.8,1.656A8.217,8.217,0,0,1,0,15.857a11.012,11.012,0,0,0,5.946,1.738,10.935,10.935,0,0,0,11.015-11c0-.164,0-.33-.012-.5a7.818,7.818,0,0,0,1.936-2l-.037-.016Z" transform="translate(0 -2.246)"/>
</svg>
