<svg xmlns="http://www.w3.org/2000/svg" viewBox="0 0 17.908 18.883">
  <defs>
    <style>
      .cls-1 {
        fill: #fff;
      }
    </style>
  </defs>
  <path id="viber" class="cls-1" d="M16.508,1.844C16.039,1.412,14.142.034,9.917.014c0,0-4.981-.3-7.408,1.929C1.157,3.3.681,5.27.631,7.727S.515,14.772,4.947,16.02h0l0,1.9s-.027.77.479.927c.613.189.973-.4,1.558-1.025.322-.345.765-.856,1.1-1.245a17.15,17.15,0,0,0,5.625-.413,5.545,5.545,0,0,0,4.637-5.239c.581-4.738-.281-7.735-1.84-9.086v0Zm.513,8.743c-.484,3.837-3.292,4.081-3.8,4.246a15.822,15.822,0,0,1-4.85.413S6.446,17.56,5.856,18.161a.341.341,0,0,1-.284.114c-.106-.023-.129-.142-.129-.318l.012-3.152h0C1.7,13.754,1.926,9.847,1.973,7.795S2.4,4.076,3.542,2.942C5.6,1.077,9.835,1.359,9.835,1.359c3.575.013,5.288,1.09,5.683,1.452,1.317,1.127,1.99,3.828,1.5,7.784ZM6.223,3.921a.637.637,0,0,1,.495.245s.456.547.653.814a10.316,10.316,0,0,1,.559.877.778.778,0,0,1-.135.982l-.445.354a.65.65,0,0,0-.2.514,4.629,4.629,0,0,0,3.115,3.11.643.643,0,0,0,.515-.194l.355-.448a.765.765,0,0,1,.979-.142,8.261,8.261,0,0,1,.878.554c.267.189.812.65.815.65a.664.664,0,0,1,.142.873v.013a3.721,3.721,0,0,1-.735.9H13.21a1.34,1.34,0,0,1-.743.353.3.3,0,0,1-.107,0,1.382,1.382,0,0,1-.318-.048v-.011A10.713,10.713,0,0,1,10,12.357a12.381,12.381,0,0,1-1.722-1.145,9.883,9.883,0,0,1-.768-.685l-.06-.022-.024-.024L7.4,10.46a9.121,9.121,0,0,1-.685-.771A12.847,12.847,0,0,1,5.586,7.966,10.7,10.7,0,0,1,4.63,5.924H4.617a.744.744,0,0,1-.047-.318.344.344,0,0,1,0-.111,1.45,1.45,0,0,1,.36-.743h0a3.638,3.638,0,0,1,.9-.734.785.785,0,0,1,.377-.106h.013l0,.009Zm3.222-.537h.091l.06,0h.016l.07,0h.4l.106.012h.058l.118.013h.024l.082.012h.013l.058.012c.036,0,.06.013.083.013H10.7l.059.023.047.013.047.012.024.012h.035l.036.013h.023l.058.013.035.011.036.013.047.013.024.011c.024,0,.047.013.072.013l.035.012.036.013.094.035.048.024.106.047.035.012.035.013.071.035.048.012.023.012.06.024.023.011.048.024.035.011.035.024.046.024.036.023.024.013.048.024.035.024.059.035.035.013.058.035.013.012.035.024.071.058.036.024.035.024.024.011.035.024.058.058.048.035.035.024.013.012.023.013.058.048.036.035.024.024.035.023.035.024.023.012.094.094.047.048.106.106.024.023a.277.277,0,0,1,.048.059l.023.024.131.153.035.047c.011.013.011.024.023.024l.071.106.035.035.071.094.06.094.035.071.046.083.035.071.013.023.023.048.06.118.058.117.024.059c.046.106.082.212.129.33a3.1,3.1,0,0,1,.142.5c.035.13.06.248.083.378l.023.212.035.236a2.355,2.355,0,0,1,.024.3,2.435,2.435,0,0,1,.011.282v.2a.077.077,0,0,1-.011.035A.226.226,0,0,1,14.4,8.6c-.017.012-.039.036-.063.036a.156.156,0,0,1-.071.011h-.035a.173.173,0,0,1-.071-.023c-.023-.013-.048-.024-.058-.048s-.035-.048-.048-.071a.156.156,0,0,1-.024-.071V8.151c-.011-.164-.023-.334-.046-.5-.013-.115-.035-.223-.048-.33a.813.813,0,0,0-.023-.164l-.023-.118-.03-.111-.013-.071-.035-.118a2.484,2.484,0,0,0-.094-.283.871.871,0,0,0-.083-.188l-.023-.06-.106-.212-.024-.035a1.667,1.667,0,0,0-.177-.308l-.035-.058h-.158l-.05-.072a1.321,1.321,0,0,0-.142-.188l-.1-.118L12.813,5.2l-.036-.045L12.75,5.12l-.059-.058-.012-.024-.055-.047-.035-.036L12.523,4.9l-.031-.029-.036-.035-.012-.013a.276.276,0,0,0-.059-.047l-.06-.049L12.3,4.711l-.048-.036L12.2,4.628,12.16,4.6l-.024-.013-.047-.042c0-.013-.013-.013-.024-.013l-.023-.023L12.03,4.5v-.01l-.024-.011-.048-.029-.035-.024-.059-.035-.047-.035-.023-.013-.025-.01H11.7l-.015-.013-.051-.028-.007-.011L11.6,4.265l-.035-.017h-.009l-.035-.013-.02-.012-.035-.012L11.459,4.2l-.024-.013-.042-.023-.024-.012L11.3,4.133l-.058-.023L11.133,4.1,11.1,4.074a.065.065,0,0,0-.036-.013l-.023-.012c-.023-.009-.035-.013-.059-.024l-.024-.013h-.023l-.048-.023-.023-.013-.035-.012h-.072a.2.2,0,0,1-.024-.006h-.071l-.035-.013h-.012l-.035-.013h-.032a.1.1,0,0,0-.055-.011l-.008-.013L10.436,3.9a.127.127,0,0,0-.066-.013l-.035-.012-.039-.013-.035-.011-.048-.013h-.048l-.141-.017H9.952L9.86,3.811H9.8L9.747,3.8H9.724l-.042-.013H9.457L9.449,3.78H9.4a.155.155,0,0,1-.071-.024.151.151,0,0,1-.064-.047l-.024-.036C9.22,3.65,9.22,3.626,9.207,3.6a.153.153,0,0,1-.011-.07.15.15,0,0,1,.012-.071A.119.119,0,0,1,9.256,3.4a.12.12,0,0,1,.058-.047.158.158,0,0,1,.071-.024h.048l.012.052Zm.436,1.238.029,0,.048,0a.083.083,0,0,1,.023,0c.017,0,.035,0,.059,0l.047.006.019.013.035.012.038.012.035.013h.024l.033.012.055.012.044.013.02.011h.057l.094.022.036.012.035.012.035.013a.012.012,0,0,1,.012.012l.036.012.035.013.035.013c.012,0,.024.011.036.011s.011.013.02.013l.05.024H10.9l.071.024.039.023.036.024L11.127,5l.047.012.024.024c.035.011.071.035.106.046l.038.024.038.024.039.023c.035.024.065.036.1.06l.023.011.032.024.017.012.059.035.029.024.051.034.023.012.024.012.036.024.047.036c.012.011.017.011.027.023s.013.012.02.024l.026.024.028.023.024.024.036.036.023.024.013.013.071.07.013.013a.025.025,0,0,0,.023.024l.013.01.035.036.023.035.024.024.035.047.036.036.071.094.011.023.048.06.013.023.012.024.012.023.013.024c.013.012.013.024.023.047l.034.06.013.012.023.048.024.035c.011.012.011.023.023.035l.024.035.024.048.023.046.013.036c.012.035.035.059.047.094,0,.012.012.023.012.035l.035.094.048.153c0,.013.012.035.012.048l.036.106.035.142.036.189c.011.058.011.106.023.166a2.115,2.115,0,0,1,.024.282l.012.165V8.2a.043.043,0,0,1-.012.035L13,8.265a.447.447,0,0,1-.058.048c-.024.012-.048.023-.071.031a.191.191,0,0,1-.083.013.179.179,0,0,1-.071-.024c-.013,0-.024-.013-.035-.017a.131.131,0,0,1-.059-.051.1.1,0,0,1-.036-.072l-.011-.035V7.913a2.564,2.564,0,0,0-.024-.3,3.231,3.231,0,0,0-.058-.33c-.023-.071-.035-.142-.059-.2L12.408,7l-.023-.059-.013-.024-.035-.094L12.3,6.756l-.059-.117-.054-.094V6.529l-.023-.037-.024-.03L12.107,6.4l-.036-.048L12,6.262c-.036-.048-.071-.094-.112-.14-.011-.012-.023-.023-.023-.035l-.024-.023-.013-.013-.024-.011-.024-.021V5.9l-.094-.089-.059-.054V5.75l-.024-.024-.03-.023-.012-.013c0-.012-.013-.012-.023-.012L11.5,5.666l-.012-.012-.048-.035-.011-.013-.013-.012a.027.027,0,0,0-.024-.012l-.047-.035-.013-.013-.047-.023L11.282,5.5l-.035-.023-.024-.013L11.2,5.441l-.023-.024h-.013a.2.2,0,0,0-.083-.047l-.035-.024-.024-.011-.013-.013L10.975,5.3l-.035-.012-.047-.024-.036-.012-.012-.013L10.8,5.228V5.219l-.072-.024-.047-.024-.024-.012h-.047c-.024-.012-.035-.012-.059-.024h-.035l-.035-.013h-.035l-.036-.011L10.389,5.1h-.048l-.048-.012-.023-.013h-.13l-.054-.012H9.81l-.036-.013A.227.227,0,0,1,9.7,5c-.011-.024-.035-.047-.047-.07a.175.175,0,0,1-.024-.072V4.791a.258.258,0,0,1,.024-.083.132.132,0,0,1,.024-.035.157.157,0,0,1,.059-.059c.012-.012.024-.012.035-.023a.146.146,0,0,1,.072-.013h.047l-.011.043ZM10.238,5.9a.126.126,0,0,1,.035,0,.273.273,0,0,1,.036,0l.041,0a2.13,2.13,0,0,1,.25.036l.082.018.02.006.09.023.046.016.036.013c.035.011.072.035.106.047l.013.012.047.024.071.036.023.011c.013.013.024.013.036.024s.035.024.047.035a.957.957,0,0,1,.118.083l.083.071.071.072.048.058.023.023.024.024.035.047.072.106.059.106L11.8,6.9l.036.083a1.909,1.909,0,0,1,.071.235,1.676,1.676,0,0,1,.047.224l.012.118.013.107v.046a.18.18,0,0,1-.024.083.191.191,0,0,1-.059.071.214.214,0,0,1-.083.048.158.158,0,0,1-.071.011.161.161,0,0,1-.071-.011l-.082-.036a.409.409,0,0,1-.072-.072.663.663,0,0,1-.035-.082V7.592l-.012-.083-.012-.094-.013-.083-.013-.047c0-.012-.011-.035-.011-.047a1.424,1.424,0,0,0-.118-.283l-.048-.047-.037-.047-.035-.035L11.169,6.8l-.059-.047-.048-.048-.046-.035c-.013-.012-.024-.012-.048-.023L10.9,6.6l-.048-.024-.023-.012h-.013l-.06-.024-.071-.024-.071-.012h-.059l-.035-.012-.028-.006h-.035l-.047-.013h-.2L10.2,6.417h-.031a.173.173,0,0,1-.063-.023.234.234,0,0,1-.071-.063A.425.425,0,0,1,10,6.26a.269.269,0,0,1-.009-.071A.233.233,0,0,1,10,6.1a.206.206,0,0,1,.047-.079l.048-.035a.158.158,0,0,1,.071-.024l.049-.059h.025Z" transform="translate(-0.62 -0.001)"/>
</svg>
